G04 Layer: TopPasteMaskLayer*
G04 EasyEDA v6.4.25, 2021-11-07T18:49:49+08:00*
G04 17709bb464344bc48104dd2e4a5a7999,bf42d0b733a240ea811a95ecb7acc88b,10*
G04 Gerber Generator version 0.2*
G04 Scale: 100 percent, Rotated: No, Reflected: No *
G04 Dimensions in millimeters *
G04 leading zeros omitted , absolute positions ,4 integer and 5 decimal *
%FSLAX45Y45*%
%MOMM*%

%ADD13R,2.9000X0.8000*%
%ADD14R,2.3000X1.5000*%
%ADD15R,0.8000X2.9000*%
%ADD16R,1.5000X2.3000*%

%LPD*%
G36*
X3223818Y427024D02*
G01*
X3219805Y423011D01*
X3219805Y376986D01*
X3223818Y372973D01*
X3281629Y372973D01*
X3285642Y376986D01*
X3285642Y423011D01*
X3281629Y427024D01*
G37*
G36*
X3118358Y427024D02*
G01*
X3114344Y423011D01*
X3114344Y376986D01*
X3118358Y372973D01*
X3176219Y372973D01*
X3180181Y376986D01*
X3180181Y423011D01*
X3176219Y427024D01*
G37*
G36*
X3223818Y127000D02*
G01*
X3219805Y122986D01*
X3219805Y77012D01*
X3223818Y72999D01*
X3281629Y72999D01*
X3285642Y77012D01*
X3285642Y122986D01*
X3281629Y127000D01*
G37*
G36*
X3118358Y127000D02*
G01*
X3114344Y122986D01*
X3114344Y77012D01*
X3118358Y72999D01*
X3176219Y72999D01*
X3180181Y77012D01*
X3180181Y122986D01*
X3176219Y127000D01*
G37*
G36*
X2239518Y4544974D02*
G01*
X2234488Y4539996D01*
X2234488Y4517186D01*
X2271522Y4517186D01*
X2271522Y4484217D01*
X2234488Y4484217D01*
X2234488Y4459986D01*
X2239518Y4455007D01*
X2319528Y4455007D01*
X2324506Y4459986D01*
X2324506Y4539996D01*
X2319528Y4544974D01*
G37*
G36*
X2080514Y4544974D02*
G01*
X2075484Y4539996D01*
X2075484Y4459986D01*
X2080514Y4455007D01*
X2159508Y4455007D01*
X2164486Y4459986D01*
X2164486Y4484217D01*
X2126488Y4484217D01*
X2126488Y4517186D01*
X2164486Y4517186D01*
X2164486Y4539996D01*
X2159508Y4544974D01*
G37*
G36*
X2239518Y4195013D02*
G01*
X2234488Y4189984D01*
X2234488Y4167225D01*
X2271522Y4167225D01*
X2271522Y4134205D01*
X2234488Y4134205D01*
X2234488Y4109974D01*
X2239518Y4104995D01*
X2319528Y4104995D01*
X2324506Y4109974D01*
X2324506Y4189984D01*
X2319528Y4195013D01*
G37*
G36*
X2080514Y4195013D02*
G01*
X2075484Y4189984D01*
X2075484Y4109974D01*
X2080514Y4104995D01*
X2159508Y4104995D01*
X2164486Y4109974D01*
X2164486Y4134205D01*
X2126488Y4134205D01*
X2126488Y4167225D01*
X2164486Y4167225D01*
X2164486Y4189984D01*
X2159508Y4195013D01*
G37*
G36*
X2239518Y3845001D02*
G01*
X2234488Y3840022D01*
X2234488Y3817213D01*
X2271522Y3817213D01*
X2271522Y3784193D01*
X2234488Y3784193D01*
X2234488Y3760012D01*
X2239518Y3754983D01*
X2319528Y3754983D01*
X2324506Y3760012D01*
X2324506Y3840022D01*
X2319528Y3845001D01*
G37*
G36*
X2080514Y3845001D02*
G01*
X2075484Y3840022D01*
X2075484Y3760012D01*
X2080514Y3754983D01*
X2159508Y3754983D01*
X2164486Y3760012D01*
X2164486Y3784193D01*
X2126488Y3784193D01*
X2126488Y3817213D01*
X2164486Y3817213D01*
X2164486Y3840022D01*
X2159508Y3845001D01*
G37*
G36*
X2239518Y3494989D02*
G01*
X2234488Y3490010D01*
X2234488Y3467201D01*
X2271522Y3467201D01*
X2271522Y3434181D01*
X2234488Y3434181D01*
X2234488Y3410000D01*
X2239518Y3405022D01*
X2319528Y3405022D01*
X2324506Y3410000D01*
X2324506Y3490010D01*
X2319528Y3494989D01*
G37*
G36*
X2080514Y3494989D02*
G01*
X2075484Y3490010D01*
X2075484Y3410000D01*
X2080514Y3405022D01*
X2159508Y3405022D01*
X2164486Y3410000D01*
X2164486Y3434181D01*
X2126488Y3434181D01*
X2126488Y3467201D01*
X2164486Y3467201D01*
X2164486Y3490010D01*
X2159508Y3494989D01*
G37*
G36*
X1282494Y4964993D02*
G01*
X1572496Y4964993D01*
X1572496Y4884994D01*
X1282494Y4884994D01*
G37*
G36*
X1282494Y4814994D02*
G01*
X1572496Y4814994D01*
X1572496Y4734994D01*
X1282494Y4734994D01*
G37*
G36*
X1282494Y4664994D02*
G01*
X1572496Y4664994D01*
X1572496Y4584994D01*
X1282494Y4584994D01*
G37*
G36*
X857493Y4345010D02*
G01*
X1087495Y4345010D01*
X1087495Y4195008D01*
X857493Y4195008D01*
G37*
G36*
X857493Y5204995D02*
G01*
X1087495Y5204995D01*
X1087495Y5054993D01*
X857493Y5054993D01*
G37*
G36*
X1282494Y4514994D02*
G01*
X1572496Y4514994D01*
X1572496Y4434994D01*
X1282494Y4434994D01*
G37*
G36*
X1282494Y2564993D02*
G01*
X1572496Y2564993D01*
X1572496Y2484993D01*
X1282494Y2484993D01*
G37*
G36*
X1282494Y2414993D02*
G01*
X1572496Y2414993D01*
X1572496Y2334994D01*
X1282494Y2334994D01*
G37*
G36*
X1282494Y2264994D02*
G01*
X1572496Y2264994D01*
X1572496Y2184994D01*
X1282494Y2184994D01*
G37*
G36*
X857493Y1945010D02*
G01*
X1087495Y1945010D01*
X1087495Y1795007D01*
X857493Y1795007D01*
G37*
G36*
X857493Y2804995D02*
G01*
X1087495Y2804995D01*
X1087495Y2654993D01*
X857493Y2654993D01*
G37*
G36*
X1282494Y2114994D02*
G01*
X1572496Y2114994D01*
X1572496Y2034994D01*
X1282494Y2034994D01*
G37*
D15*
G01*
X1975002Y427481D03*
G01*
X2125014Y427481D03*
G01*
X2275001Y427481D03*
D16*
G01*
X2629992Y-27508D03*
G01*
X1769998Y-27508D03*
D15*
G01*
X2425014Y427481D03*
G36*
X1282494Y3840002D02*
G01*
X1572496Y3840002D01*
X1572496Y3760002D01*
X1282494Y3760002D01*
G37*
G36*
X1282494Y3690002D02*
G01*
X1572496Y3690002D01*
X1572496Y3610002D01*
X1282494Y3610002D01*
G37*
G36*
X1282494Y3540003D02*
G01*
X1572496Y3540003D01*
X1572496Y3460003D01*
X1282494Y3460003D01*
G37*
G36*
X1282494Y3390003D02*
G01*
X1572496Y3390003D01*
X1572496Y3310003D01*
X1282494Y3310003D01*
G37*
G36*
X1282494Y3240001D02*
G01*
X1572496Y3240001D01*
X1572496Y3160001D01*
X1282494Y3160001D01*
G37*
G36*
X857493Y3069998D02*
G01*
X1087495Y3069998D01*
X1087495Y2919996D01*
X857493Y2919996D01*
G37*
G36*
X857493Y4080004D02*
G01*
X1087495Y4080004D01*
X1087495Y3930002D01*
X857493Y3930002D01*
G37*
D13*
G01*
X2972511Y4625009D03*
G01*
X2972511Y4774996D03*
D14*
G01*
X3427475Y4420006D03*
G01*
X3427475Y4980000D03*
D13*
G01*
X2972511Y3825011D03*
G01*
X2972511Y3974998D03*
D14*
G01*
X3427475Y3620007D03*
G01*
X3427475Y4180001D03*
D13*
G01*
X2972511Y3025012D03*
G01*
X2972511Y3175000D03*
D14*
G01*
X3427475Y2820009D03*
G01*
X3427475Y3380003D03*
D13*
G01*
X2972511Y2225014D03*
G01*
X2972511Y2375001D03*
D14*
G01*
X3427475Y2020011D03*
G01*
X3427475Y2580004D03*
M02*
