M48
METRIC,LZ,000.000
;FILE_FORMAT=3:3
;TYPE=PLATED
;Layer: Drill PTH
;EasyEDA v6.4.25, 2021-11-07T18:49:49+08:00
;17709bb464344bc48104dd2e4a5a7999,bf42d0b733a240ea811a95ecb7acc88b,10
;Gerber Generator version 0.2
;Holesize 1 = 0.306 mm
T01C0.306
;Holesize 2 = 0.915 mm
T02C0.915
%
G05
G90
T01
X013343Y052849
X016006Y043940
X013490Y026741
X016209Y034922
X018197Y033500
X016206Y032378
X029725Y042536
X022753Y037091
X022753Y072889
X022753Y035402
X027814Y022928
T02
X029620Y056896
X029620Y059436
X029620Y061976
X029620Y064516
X029620Y067056
X029620Y069596
X029620Y072136
X029620Y074676
X029620Y077216
X029620Y079756
X029620Y082296
X029620Y084836
X029620Y087376
X029620Y089916
X029620Y092456
X014380Y056896
X014380Y059436
X014380Y061976
X014380Y064516
X014380Y067056
X014380Y069596
X014380Y072136
X014380Y074676
X014380Y077216
X014380Y079756
X014380Y082296
X014380Y084836
X014380Y087376
X014380Y089916
X014380Y092456
M30
