G04 Layer: BottomLayer*
G04 EasyEDA v6.4.25, 2021-11-07T18:49:49+08:00*
G04 17709bb464344bc48104dd2e4a5a7999,bf42d0b733a240ea811a95ecb7acc88b,10*
G04 Gerber Generator version 0.2*
G04 Scale: 100 percent, Rotated: No, Reflected: No *
G04 Dimensions in millimeters *
G04 leading zeros omitted , absolute positions ,4 integer and 5 decimal *
%FSLAX45Y45*%
%MOMM*%

%ADD10C,0.2540*%
%ADD12C,0.6100*%
%ADD19R,2.1000X2.1000*%
%ADD20C,1.7780*%
%ADD21C,1.7000*%

%LPD*%
D10*
X2781429Y3540191D02*
G01*
X2275334Y3540191D01*
X2961998Y8229589D02*
G01*
X3233955Y7957632D01*
X3233955Y3992717D01*
X2781429Y3540191D01*
X2781429Y3540191D02*
G01*
X2781429Y2292822D01*
X2961998Y7975589D02*
G01*
X2275334Y7288926D01*
X2972513Y4253575D02*
G01*
X2819783Y4253575D01*
X2275334Y3709126D01*
X2961998Y7213589D02*
G01*
X3152218Y7023369D01*
X3152218Y4769424D01*
X1620624Y3237829D01*
X2961998Y7467589D02*
G01*
X3193087Y7236500D01*
X3193087Y4723399D01*
X1819683Y3349995D01*
X1620878Y3492159D02*
G01*
X1272186Y3840850D01*
X1272186Y7232385D01*
X1371500Y7331699D01*
X1687248Y7331699D01*
X1791642Y7227305D01*
X2467714Y7227305D01*
X2961998Y7721589D01*
X1437998Y7467589D02*
G01*
X1229540Y7259132D01*
X1229540Y2793558D01*
X1348971Y2674127D01*
X2961998Y6705589D02*
G01*
X1600634Y5344226D01*
X1600634Y4394037D01*
X1334289Y5284866D02*
G01*
X1334289Y5331881D01*
X2961998Y6959589D01*
X1437998Y5943589D02*
G01*
X2580998Y7086589D01*
X3018335Y7086589D01*
X3106905Y6998020D01*
X3106905Y6596496D01*
X2961998Y6451589D01*
D19*
G01*
X2961995Y5689600D03*
D12*
G01*
X1334287Y5284876D03*
G01*
X1600631Y4394047D03*
G01*
X1348968Y2674137D03*
G01*
X1620875Y3492169D03*
G01*
X1819681Y3350005D03*
G01*
X1620621Y3237839D03*
G01*
X2972511Y4253585D03*
G01*
X2275331Y3709136D03*
G01*
X2275331Y7288936D03*
G01*
X2275331Y3540201D03*
G01*
X2781427Y2292832D03*
D20*
X2945894Y5943600D02*
G01*
X2978096Y5943600D01*
X2945894Y6197600D02*
G01*
X2978096Y6197600D01*
X2945894Y6451600D02*
G01*
X2978096Y6451600D01*
X2945894Y6705600D02*
G01*
X2978096Y6705600D01*
X2945894Y6959600D02*
G01*
X2978096Y6959600D01*
X2945894Y7213600D02*
G01*
X2978096Y7213600D01*
X2945894Y7467600D02*
G01*
X2978096Y7467600D01*
X2945894Y7721600D02*
G01*
X2978096Y7721600D01*
X2945894Y7975600D02*
G01*
X2978096Y7975600D01*
X2945894Y8229600D02*
G01*
X2978096Y8229600D01*
X2945894Y8483600D02*
G01*
X2978096Y8483600D01*
X2945894Y8737600D02*
G01*
X2978096Y8737600D01*
X2945894Y8991600D02*
G01*
X2978096Y8991600D01*
X2945894Y9245600D02*
G01*
X2978096Y9245600D01*
D21*
X1417995Y5689600D02*
G01*
X1457995Y5689600D01*
X1417995Y5943600D02*
G01*
X1457995Y5943600D01*
X1417995Y6197600D02*
G01*
X1457995Y6197600D01*
X1417995Y6451600D02*
G01*
X1457995Y6451600D01*
X1417995Y6705600D02*
G01*
X1457995Y6705600D01*
X1417995Y6959600D02*
G01*
X1457995Y6959600D01*
X1417995Y7213600D02*
G01*
X1457995Y7213600D01*
X1417995Y7467600D02*
G01*
X1457995Y7467600D01*
X1417995Y7721600D02*
G01*
X1457995Y7721600D01*
X1417995Y7975600D02*
G01*
X1457995Y7975600D01*
X1417995Y8229600D02*
G01*
X1457995Y8229600D01*
X1417995Y8483600D02*
G01*
X1457995Y8483600D01*
X1417995Y8737600D02*
G01*
X1457995Y8737600D01*
X1417995Y8991600D02*
G01*
X1457995Y8991600D01*
X1417995Y9245600D02*
G01*
X1457995Y9245600D01*
M02*
