G04 Layer: TopLayer*
G04 EasyEDA v6.4.25, 2021-11-07T18:49:49+08:00*
G04 17709bb464344bc48104dd2e4a5a7999,bf42d0b733a240ea811a95ecb7acc88b,10*
G04 Gerber Generator version 0.2*
G04 Scale: 100 percent, Rotated: No, Reflected: No *
G04 Dimensions in millimeters *
G04 leading zeros omitted , absolute positions ,4 integer and 5 decimal *
%FSLAX45Y45*%
%MOMM*%

%ADD10C,0.2540*%
%ADD11C,0.5000*%
%ADD12C,0.6100*%
%ADD13R,2.9000X0.8000*%
%ADD14R,2.3000X1.5000*%
%ADD15R,0.8000X2.9000*%
%ADD16R,1.5000X2.3000*%
%ADD19R,2.1000X2.1000*%
%ADD20C,1.7780*%
%ADD21C,1.7000*%

%LPD*%
D10*
X3146173Y99989D02*
G01*
X3146173Y155107D01*
X3146173Y155107D02*
G01*
X3313762Y322696D01*
X3313762Y633262D01*
X3278736Y668289D01*
X3278736Y5626851D01*
X2961998Y5943589D01*
X2961998Y5689589D02*
G01*
X2961998Y5556468D01*
X3253818Y399989D02*
G01*
X3253818Y455107D01*
X3253818Y455107D02*
G01*
X3237867Y471058D01*
X3237867Y5280599D01*
X2961998Y5556468D01*
X2972513Y2225029D02*
G01*
X2799387Y2225029D01*
X2799387Y2225029D02*
G01*
X2781429Y2242987D01*
X2781429Y2292822D01*
X2275334Y3540191D02*
G01*
X2275334Y3449995D01*
X2972513Y3025028D02*
G01*
X3145640Y3025028D01*
X3145640Y3025028D02*
G01*
X3196998Y3076387D01*
X3196998Y4861499D01*
X2824380Y5234117D01*
X2824380Y7837972D01*
X2961998Y7975589D01*
X2783512Y4872014D02*
G01*
X3128672Y4872014D01*
X3156130Y4844557D01*
X3156130Y3835516D01*
X3145640Y3825026D01*
X2961998Y8483589D02*
G01*
X2783512Y8305104D01*
X2783512Y4872014D01*
X2783512Y4872014D02*
G01*
X2275334Y4363836D01*
X2275334Y4149994D01*
X2972513Y3825026D02*
G01*
X3145640Y3825026D01*
X2206881Y3800007D02*
G01*
X2206881Y8476706D01*
X1437998Y9245589D01*
X2275334Y3800007D02*
G01*
X2241120Y3800007D01*
X2241120Y3800007D02*
G01*
X2206881Y3800007D01*
X2972513Y4253575D02*
G01*
X2972513Y4625025D01*
X2241120Y3800007D02*
G01*
X2275334Y3765793D01*
X2275334Y3709126D01*
X1427507Y3200008D02*
G01*
X1600634Y3200008D01*
X1600634Y3200008D02*
G01*
X1620624Y3219998D01*
X1620624Y3237829D01*
X1427507Y3349995D02*
G01*
X1819683Y3349995D01*
X1427507Y3500008D02*
G01*
X1600634Y3500008D01*
X1620878Y3492159D02*
G01*
X1608482Y3492159D01*
X1600634Y3500008D01*
X3146173Y399989D02*
G01*
X2452524Y399989D01*
X2425016Y427497D01*
X3253818Y44871D02*
G01*
X2980438Y44871D01*
X2770939Y254370D01*
X2275004Y254370D01*
X3253818Y99989D02*
G01*
X3253818Y44871D01*
X2275004Y427497D02*
G01*
X2275004Y254370D01*
X1427507Y2074992D02*
G01*
X1254381Y2074992D01*
X1437998Y7213589D02*
G01*
X1160299Y6935891D01*
X1160299Y3822613D01*
X1253086Y3729827D01*
X1602869Y3729827D01*
X1879500Y3453196D01*
X1879500Y3287765D01*
X1200533Y2608798D01*
X1200533Y2128840D01*
X1254381Y2074992D01*
X1254381Y2225004D02*
G01*
X1241402Y2237983D01*
X1241402Y2566558D01*
X1348971Y2674127D01*
X1427507Y2225004D02*
G01*
X1254381Y2225004D01*
X1427507Y4474987D02*
G01*
X1600634Y4474987D01*
X1600634Y4474987D02*
G01*
X1600634Y4394037D01*
X1427507Y4624999D02*
G01*
X1254381Y4624999D01*
X1254381Y4624999D02*
G01*
X1244729Y4634651D01*
X1244729Y5195305D01*
X1334289Y5284866D01*
D11*
X2972513Y3175015D02*
G01*
X2796263Y3175015D01*
X2796263Y3175015D02*
G01*
X2777492Y3175015D01*
X2972513Y3975013D02*
G01*
X2777492Y3975013D01*
X2972513Y2375016D02*
G01*
X2777492Y2375016D01*
X1427507Y2374991D02*
G01*
X1622529Y2374991D01*
X2125017Y427497D02*
G01*
X2125017Y232476D01*
X2777492Y3175015D02*
G01*
X2777492Y2375016D01*
X2777492Y3175015D02*
G01*
X2777492Y3975013D01*
X2972513Y4775012D02*
G01*
X2777492Y4775012D01*
X1427507Y4774986D02*
G01*
X1622529Y4774986D01*
X1622529Y4774986D02*
G01*
X2016483Y4381032D01*
X2016483Y2803387D01*
X2444854Y2375016D01*
X2125017Y427497D02*
G01*
X2125017Y2055180D01*
X2444854Y2375016D01*
X2444854Y2375016D02*
G01*
X2777492Y2375016D01*
X2777492Y4775012D02*
G01*
X2777492Y3975013D01*
D10*
X2124661Y3800007D02*
G01*
X2124661Y4149994D01*
X2124661Y4149994D02*
G01*
X2124661Y4500006D01*
X1427507Y2525003D02*
G01*
X1600634Y2525003D01*
X1303352Y5362793D02*
G01*
X1303352Y5808944D01*
X1437998Y5943589D01*
X2124661Y3449995D02*
G01*
X2090447Y3449995D01*
X2090447Y3449995D02*
G01*
X2090447Y3694470D01*
X2124661Y3728684D01*
X2124661Y3800007D02*
G01*
X2124661Y3728684D01*
X2124661Y4500006D02*
G01*
X2056234Y4500006D01*
X1427507Y4924999D02*
G01*
X1600634Y4924999D01*
X1600634Y4924999D02*
G01*
X1631241Y4924999D01*
X2056234Y4500006D01*
X1343662Y3800007D02*
G01*
X1259791Y3800007D01*
X1343662Y3800007D02*
G01*
X1427507Y3800007D01*
X1600634Y2525003D02*
G01*
X1975004Y2150633D01*
X1975004Y427497D01*
X1427507Y3800007D02*
G01*
X1600634Y3800007D01*
X1600634Y4924999D02*
G01*
X1600634Y5101452D01*
X1339293Y5362793D01*
X1303352Y5362793D01*
X1259791Y3800007D02*
G01*
X1202032Y3857767D01*
X1202032Y5261472D01*
X1303352Y5362793D01*
X1600634Y2525003D02*
G01*
X1920369Y2844739D01*
X1920369Y3480272D01*
X1600634Y3800007D01*
D11*
X1427507Y3649995D02*
G01*
X1054534Y3649995D01*
X807468Y3897061D01*
X807468Y8361060D01*
X1437998Y8991589D01*
D10*
X2275334Y4500006D02*
G01*
X2275334Y7288926D01*
D11*
X1622529Y2374991D02*
G01*
X1622529Y523610D01*
X1913663Y232476D01*
X2125017Y232476D01*
G36*
X1282494Y4964993D02*
G01*
X1572496Y4964993D01*
X1572496Y4884994D01*
X1282494Y4884994D01*
G37*
G36*
X1282494Y4814994D02*
G01*
X1572496Y4814994D01*
X1572496Y4734994D01*
X1282494Y4734994D01*
G37*
G36*
X1282494Y4664994D02*
G01*
X1572496Y4664994D01*
X1572496Y4584994D01*
X1282494Y4584994D01*
G37*
G36*
X857493Y4345010D02*
G01*
X1087495Y4345010D01*
X1087495Y4195008D01*
X857493Y4195008D01*
G37*
G36*
X857493Y5204995D02*
G01*
X1087495Y5204995D01*
X1087495Y5054993D01*
X857493Y5054993D01*
G37*
G36*
X1282494Y4514994D02*
G01*
X1572496Y4514994D01*
X1572496Y4434994D01*
X1282494Y4434994D01*
G37*
G36*
X1282494Y2564993D02*
G01*
X1572496Y2564993D01*
X1572496Y2484993D01*
X1282494Y2484993D01*
G37*
G36*
X1282494Y2414993D02*
G01*
X1572496Y2414993D01*
X1572496Y2334994D01*
X1282494Y2334994D01*
G37*
G36*
X1282494Y2264994D02*
G01*
X1572496Y2264994D01*
X1572496Y2184994D01*
X1282494Y2184994D01*
G37*
G36*
X857493Y1945010D02*
G01*
X1087495Y1945010D01*
X1087495Y1795007D01*
X857493Y1795007D01*
G37*
G36*
X857493Y2804995D02*
G01*
X1087495Y2804995D01*
X1087495Y2654993D01*
X857493Y2654993D01*
G37*
G36*
X1282494Y2114994D02*
G01*
X1572496Y2114994D01*
X1572496Y2034994D01*
X1282494Y2034994D01*
G37*
D15*
G01*
X1975002Y427481D03*
G01*
X2125014Y427481D03*
G01*
X2275001Y427481D03*
D16*
G01*
X2629992Y-27508D03*
G01*
X1769998Y-27508D03*
D15*
G01*
X2425014Y427481D03*
G36*
X1282494Y3840002D02*
G01*
X1572496Y3840002D01*
X1572496Y3760002D01*
X1282494Y3760002D01*
G37*
G36*
X1282494Y3690002D02*
G01*
X1572496Y3690002D01*
X1572496Y3610002D01*
X1282494Y3610002D01*
G37*
G36*
X1282494Y3540003D02*
G01*
X1572496Y3540003D01*
X1572496Y3460003D01*
X1282494Y3460003D01*
G37*
G36*
X1282494Y3390003D02*
G01*
X1572496Y3390003D01*
X1572496Y3310003D01*
X1282494Y3310003D01*
G37*
G36*
X1282494Y3240001D02*
G01*
X1572496Y3240001D01*
X1572496Y3160001D01*
X1282494Y3160001D01*
G37*
G36*
X857493Y3069998D02*
G01*
X1087495Y3069998D01*
X1087495Y2919996D01*
X857493Y2919996D01*
G37*
G36*
X857493Y4080004D02*
G01*
X1087495Y4080004D01*
X1087495Y3930002D01*
X857493Y3930002D01*
G37*
D13*
G01*
X2972511Y4625009D03*
G01*
X2972511Y4774996D03*
D14*
G01*
X3427475Y4420006D03*
G01*
X3427475Y4980000D03*
D13*
G01*
X2972511Y3825011D03*
G01*
X2972511Y3974998D03*
D14*
G01*
X3427475Y3620007D03*
G01*
X3427475Y4180001D03*
D13*
G01*
X2972511Y3025012D03*
G01*
X2972511Y3175000D03*
D14*
G01*
X3427475Y2820009D03*
G01*
X3427475Y3380003D03*
D13*
G01*
X2972511Y2225014D03*
G01*
X2972511Y2375001D03*
D14*
G01*
X3427475Y2020011D03*
G01*
X3427475Y2580004D03*
G36*
X3222000Y372998D02*
G01*
X3222000Y426999D01*
X3285650Y426999D01*
X3285650Y372998D01*
G37*
G36*
X3178002Y372998D02*
G01*
X3178002Y426999D01*
X3114352Y426999D01*
X3114352Y372998D01*
G37*
G36*
X3222000Y72999D02*
G01*
X3222000Y127000D01*
X3285650Y127000D01*
X3285650Y72999D01*
G37*
G36*
X3178002Y72999D02*
G01*
X3178002Y127000D01*
X3114352Y127000D01*
X3114352Y72999D01*
G37*
G36*
X2235001Y4456800D02*
G01*
X2235001Y4543201D01*
X2315649Y4543201D01*
X2315649Y4456800D01*
G37*
G36*
X2164999Y4456800D02*
G01*
X2164999Y4543201D01*
X2084351Y4543201D01*
X2084351Y4456800D01*
G37*
G36*
X2235001Y4106798D02*
G01*
X2235001Y4193199D01*
X2315649Y4193199D01*
X2315649Y4106798D01*
G37*
G36*
X2164999Y4106798D02*
G01*
X2164999Y4193199D01*
X2084351Y4193199D01*
X2084351Y4106798D01*
G37*
G36*
X2235001Y3756799D02*
G01*
X2235001Y3843200D01*
X2315649Y3843200D01*
X2315649Y3756799D01*
G37*
G36*
X2164999Y3756799D02*
G01*
X2164999Y3843200D01*
X2084351Y3843200D01*
X2084351Y3756799D01*
G37*
G36*
X2235001Y3406800D02*
G01*
X2235001Y3493201D01*
X2315649Y3493201D01*
X2315649Y3406800D01*
G37*
G36*
X2164999Y3406800D02*
G01*
X2164999Y3493201D01*
X2084351Y3493201D01*
X2084351Y3406800D01*
G37*
D19*
G01*
X2961995Y5689600D03*
D12*
G01*
X1334287Y5284876D03*
G01*
X1600631Y4394047D03*
G01*
X1348968Y2674137D03*
G01*
X1620875Y3492169D03*
G01*
X1819681Y3350005D03*
G01*
X1620621Y3237839D03*
G01*
X2972511Y4253585D03*
G01*
X2275331Y3709136D03*
G01*
X2275331Y7288936D03*
G01*
X2275331Y3540201D03*
G01*
X2781427Y2292832D03*
D20*
X2945894Y5943600D02*
G01*
X2978096Y5943600D01*
X2945894Y6197600D02*
G01*
X2978096Y6197600D01*
X2945894Y6451600D02*
G01*
X2978096Y6451600D01*
X2945894Y6705600D02*
G01*
X2978096Y6705600D01*
X2945894Y6959600D02*
G01*
X2978096Y6959600D01*
X2945894Y7213600D02*
G01*
X2978096Y7213600D01*
X2945894Y7467600D02*
G01*
X2978096Y7467600D01*
X2945894Y7721600D02*
G01*
X2978096Y7721600D01*
X2945894Y7975600D02*
G01*
X2978096Y7975600D01*
X2945894Y8229600D02*
G01*
X2978096Y8229600D01*
X2945894Y8483600D02*
G01*
X2978096Y8483600D01*
X2945894Y8737600D02*
G01*
X2978096Y8737600D01*
X2945894Y8991600D02*
G01*
X2978096Y8991600D01*
X2945894Y9245600D02*
G01*
X2978096Y9245600D01*
D21*
X1417995Y5689600D02*
G01*
X1457995Y5689600D01*
X1417995Y5943600D02*
G01*
X1457995Y5943600D01*
X1417995Y6197600D02*
G01*
X1457995Y6197600D01*
X1417995Y6451600D02*
G01*
X1457995Y6451600D01*
X1417995Y6705600D02*
G01*
X1457995Y6705600D01*
X1417995Y6959600D02*
G01*
X1457995Y6959600D01*
X1417995Y7213600D02*
G01*
X1457995Y7213600D01*
X1417995Y7467600D02*
G01*
X1457995Y7467600D01*
X1417995Y7721600D02*
G01*
X1457995Y7721600D01*
X1417995Y7975600D02*
G01*
X1457995Y7975600D01*
X1417995Y8229600D02*
G01*
X1457995Y8229600D01*
X1417995Y8483600D02*
G01*
X1457995Y8483600D01*
X1417995Y8737600D02*
G01*
X1457995Y8737600D01*
X1417995Y8991600D02*
G01*
X1457995Y8991600D01*
X1417995Y9245600D02*
G01*
X1457995Y9245600D01*
M02*
