G04 Layer: TopSolderMaskLayer*
G04 EasyEDA v6.4.25, 2021-11-07T18:49:49+08:00*
G04 17709bb464344bc48104dd2e4a5a7999,bf42d0b733a240ea811a95ecb7acc88b,10*
G04 Gerber Generator version 0.2*
G04 Scale: 100 percent, Rotated: No, Reflected: No *
G04 Dimensions in millimeters *
G04 leading zeros omitted , absolute positions ,4 integer and 5 decimal *
%FSLAX45Y45*%
%MOMM*%

%ADD25C,1.9812*%
%ADD26C,1.9032*%
%ADD27R,3.0016X0.9016*%

%LPD*%
G36*
X1255572Y1594510D02*
G01*
X1255572Y1496415D01*
X817219Y1496415D01*
X817219Y1398270D01*
X1255572Y1398270D01*
X1255572Y325323D01*
X1353718Y325323D01*
X1353718Y1594510D01*
G37*
G36*
X863041Y1345946D02*
G01*
X863041Y1300124D01*
X1013510Y1300124D01*
X1013510Y1058468D01*
X866292Y1054811D01*
X862228Y1005484D01*
X1206500Y1008989D01*
X1206500Y1054811D01*
X1059281Y1058468D01*
X1059281Y1299718D01*
X1206500Y1303375D01*
X1210614Y1345946D01*
G37*
G36*
X863041Y959916D02*
G01*
X863041Y619709D01*
X1209751Y619709D01*
X1209751Y665530D01*
X915365Y665530D01*
X915365Y907338D01*
X1206500Y910844D01*
X1210564Y959916D01*
G37*
G36*
X862177Y560832D02*
G01*
X862774Y515061D01*
X1014323Y515061D01*
X1012397Y406958D01*
X1062583Y406958D01*
X1062583Y511809D01*
X1157427Y515620D01*
X1157274Y389483D01*
X1156970Y372110D01*
X1156462Y357733D01*
X1155649Y345897D01*
X1154531Y336194D01*
X1153058Y328218D01*
X1151128Y321411D01*
X1148740Y315417D01*
X1145844Y309778D01*
X1140256Y300786D01*
X1136650Y295960D01*
X1133144Y292303D01*
X1129588Y289661D01*
X1125778Y287985D01*
X1121460Y287121D01*
X1116431Y286918D01*
X1110488Y287324D01*
X1105560Y288086D01*
X1100785Y289407D01*
X1096162Y291236D01*
X1091742Y293573D01*
X1087526Y296367D01*
X1083513Y299720D01*
X1079804Y303530D01*
X1076299Y307797D01*
X1072896Y312724D01*
X1070102Y317703D01*
X1068882Y320395D01*
X1066901Y326491D01*
X1065377Y333857D01*
X1064260Y343001D01*
X1063447Y354431D01*
X1062939Y368554D01*
X1062583Y406958D01*
X1012397Y406958D01*
X1011428Y360121D01*
X1010005Y321614D01*
X1008989Y307848D01*
X1007668Y297027D01*
X1006043Y288493D01*
X1003960Y281736D01*
X1001369Y276098D01*
X998219Y271018D01*
X996442Y268528D01*
X992632Y263855D01*
X988669Y259842D01*
X984605Y256489D01*
X980440Y253796D01*
X976172Y251764D01*
X971905Y250342D01*
X967587Y249631D01*
X963218Y249529D01*
X958900Y250139D01*
X954582Y251358D01*
X950315Y253238D01*
X946099Y255778D01*
X941984Y258927D01*
X937971Y262737D01*
X934059Y267208D01*
X928319Y275386D01*
X924814Y281228D01*
X922019Y287223D01*
X919835Y294081D01*
X918210Y302463D01*
X916990Y312978D01*
X916228Y326339D01*
X915720Y343154D01*
X915365Y389890D01*
X915365Y515061D01*
X862774Y515061D01*
X864819Y360172D01*
X865682Y315874D01*
X867156Y281736D01*
X868273Y267919D01*
X869645Y255930D01*
X871372Y245668D01*
X873506Y236778D01*
X876096Y229209D01*
X877569Y225755D01*
X880973Y219608D01*
X884936Y214121D01*
X889508Y209143D01*
X894791Y204368D01*
X900836Y199694D01*
X915314Y189585D01*
X920343Y186436D01*
X925576Y183692D01*
X931011Y181356D01*
X936599Y179425D01*
X942238Y177901D01*
X948029Y176733D01*
X953922Y176022D01*
X959815Y175666D01*
X965758Y175666D01*
X971753Y176072D01*
X977696Y176834D01*
X983589Y178003D01*
X989431Y179476D01*
X995171Y181356D01*
X1000861Y183540D01*
X1006398Y186080D01*
X1011732Y188976D01*
X1016965Y192176D01*
X1021943Y195732D01*
X1026769Y199593D01*
X1031290Y203758D01*
X1035558Y208279D01*
X1039571Y213106D01*
X1047699Y224739D01*
X1051306Y229565D01*
X1054506Y232765D01*
X1057554Y234492D01*
X1060856Y234899D01*
X1064666Y233984D01*
X1069441Y231952D01*
X1080008Y226720D01*
X1084732Y224942D01*
X1089609Y223469D01*
X1094536Y222402D01*
X1099566Y221640D01*
X1104646Y221284D01*
X1109827Y221234D01*
X1115009Y221538D01*
X1120292Y222199D01*
X1125524Y223164D01*
X1130808Y224485D01*
X1136040Y226110D01*
X1141272Y228041D01*
X1146454Y230276D01*
X1151585Y232867D01*
X1156614Y235712D01*
X1161592Y238861D01*
X1166520Y242316D01*
X1171295Y246075D01*
X1175918Y250088D01*
X1180439Y254406D01*
X1184808Y258978D01*
X1192987Y268935D01*
X1195882Y273100D01*
X1198321Y277469D01*
X1200404Y282448D01*
X1202131Y288493D01*
X1203553Y296011D01*
X1204772Y305358D01*
X1205687Y317042D01*
X1206500Y331368D01*
X1207160Y348843D01*
X1208176Y394716D01*
X1210919Y560832D01*
G37*
G36*
X1262837Y312267D02*
G01*
X1254760Y312166D01*
X1248511Y311708D01*
X1243838Y310642D01*
X1240383Y308762D01*
X1237843Y305765D01*
X1235964Y301396D01*
X1234440Y295503D01*
X1231696Y282295D01*
X1229868Y276250D01*
X1227582Y269849D01*
X1224889Y263245D01*
X1221892Y256641D01*
X1218641Y250240D01*
X1215288Y244246D01*
X1211834Y238861D01*
X1208481Y234391D01*
X1204569Y229920D01*
X1200099Y225399D01*
X1195222Y220929D01*
X1189990Y216560D01*
X1184452Y212344D01*
X1172768Y204520D01*
X1166825Y201015D01*
X1160830Y197815D01*
X1154938Y194970D01*
X1149197Y192582D01*
X1143660Y190601D01*
X1138428Y189179D01*
X1133602Y188264D01*
X1129182Y187960D01*
X1123899Y186690D01*
X1120495Y182422D01*
X1118717Y174396D01*
X1118158Y161798D01*
X1118260Y153771D01*
X1118666Y147624D01*
X1119479Y143002D01*
X1120902Y139750D01*
X1123035Y137566D01*
X1126083Y136347D01*
X1130147Y135737D01*
X1135430Y135585D01*
X1140968Y135737D01*
X1146556Y136194D01*
X1157681Y137871D01*
X1163218Y139090D01*
X1174292Y142341D01*
X1185164Y146558D01*
X1195832Y151638D01*
X1206195Y157530D01*
X1216253Y164236D01*
X1225905Y171653D01*
X1235100Y179679D01*
X1243787Y188315D01*
X1251864Y197459D01*
X1259332Y207111D01*
X1266037Y217119D01*
X1269136Y222250D01*
X1274673Y232765D01*
X1279347Y243484D01*
X1283106Y254406D01*
X1285900Y265480D01*
X1286865Y271018D01*
X1288034Y282143D01*
X1288186Y295706D01*
X1287780Y301752D01*
X1286814Y306070D01*
X1284935Y309016D01*
X1281887Y310845D01*
X1277366Y311810D01*
X1271117Y312166D01*
G37*
G36*
X1372209Y312267D02*
G01*
X1364437Y312166D01*
X1358493Y311759D01*
X1354074Y310896D01*
X1350975Y309372D01*
X1348943Y307035D01*
X1347774Y303682D01*
X1347266Y299161D01*
X1347012Y290372D01*
X1346098Y282600D01*
X1344371Y272796D01*
X1341983Y261620D01*
X1339037Y249631D01*
X1335684Y237490D01*
X1331976Y225653D01*
X1327607Y214121D01*
X1322476Y202844D01*
X1316634Y191871D01*
X1310132Y181203D01*
X1302969Y170840D01*
X1295247Y160883D01*
X1286967Y151333D01*
X1278178Y142189D01*
X1268933Y133553D01*
X1259230Y125425D01*
X1249121Y117805D01*
X1238605Y110744D01*
X1227836Y104292D01*
X1216710Y98450D01*
X1205382Y93268D01*
X1193800Y88798D01*
X1182065Y84988D01*
X1170178Y81991D01*
X1158138Y79756D01*
X1118158Y74930D01*
X1118209Y40538D01*
X1118717Y31089D01*
X1119327Y27432D01*
X1120394Y24384D01*
X1121867Y22047D01*
X1123950Y20269D01*
X1126642Y19100D01*
X1130046Y18491D01*
X1134313Y18389D01*
X1139494Y18846D01*
X1145692Y19761D01*
X1161389Y22910D01*
X1182166Y27736D01*
X1195832Y31191D01*
X1208633Y34899D01*
X1220673Y38912D01*
X1232103Y43383D01*
X1243025Y48310D01*
X1253591Y53746D01*
X1263904Y59791D01*
X1274064Y66548D01*
X1284224Y74015D01*
X1294536Y82346D01*
X1305102Y91541D01*
X1316024Y101701D01*
X1324914Y110540D01*
X1333398Y119887D01*
X1341526Y129590D01*
X1349197Y139700D01*
X1356461Y150063D01*
X1363268Y160680D01*
X1369517Y171500D01*
X1375257Y182422D01*
X1380388Y193395D01*
X1384909Y204368D01*
X1388821Y215290D01*
X1392021Y226110D01*
X1394561Y236778D01*
X1396339Y247142D01*
X1403756Y295706D01*
X1403756Y300990D01*
X1402994Y305257D01*
X1401572Y308000D01*
X1397914Y309676D01*
X1391208Y310997D01*
X1382318Y311912D01*
G37*
G36*
X1458366Y312267D02*
G01*
X1458264Y279501D01*
X1457655Y269544D01*
X1456486Y258927D01*
X1454708Y247700D01*
X1452422Y236067D01*
X1449679Y224180D01*
X1446530Y212140D01*
X1442974Y200101D01*
X1439011Y188214D01*
X1434795Y176631D01*
X1430223Y165455D01*
X1425448Y154889D01*
X1420215Y144526D01*
X1414424Y134061D01*
X1408226Y123799D01*
X1401673Y113792D01*
X1394764Y104089D01*
X1387551Y94589D01*
X1379982Y85344D01*
X1372108Y76403D01*
X1363929Y67716D01*
X1355445Y59334D01*
X1346657Y51206D01*
X1337665Y43434D01*
X1328369Y35966D01*
X1318818Y28803D01*
X1309065Y21996D01*
X1299108Y15544D01*
X1288897Y9398D01*
X1278534Y3606D01*
X1267968Y-1778D01*
X1257249Y-6807D01*
X1246327Y-11480D01*
X1235303Y-15747D01*
X1224076Y-19608D01*
X1212799Y-23063D01*
X1201369Y-26111D01*
X1189837Y-28752D01*
X1178255Y-30937D01*
X1166571Y-32715D01*
X1121460Y-37744D01*
X1118870Y-74269D01*
X1118717Y-80924D01*
X1119124Y-85852D01*
X1120241Y-89255D01*
X1122172Y-91440D01*
X1125067Y-92710D01*
X1129131Y-93268D01*
X1137208Y-93268D01*
X1145032Y-92557D01*
X1167536Y-89306D01*
X1180947Y-87020D01*
X1208024Y-81686D01*
X1220266Y-78689D01*
X1232408Y-75336D01*
X1244396Y-71577D01*
X1256284Y-67411D01*
X1268018Y-62890D01*
X1279601Y-57962D01*
X1290980Y-52730D01*
X1302207Y-47091D01*
X1313230Y-41097D01*
X1324102Y-34747D01*
X1334719Y-28092D01*
X1345133Y-21082D01*
X1355344Y-13766D01*
X1365250Y-6146D01*
X1374952Y1727D01*
X1384401Y9956D01*
X1393545Y18491D01*
X1402435Y27279D01*
X1411020Y36322D01*
X1419301Y45618D01*
X1427276Y55219D01*
X1434896Y65024D01*
X1442212Y75082D01*
X1449171Y85344D01*
X1455826Y95859D01*
X1462074Y106629D01*
X1467916Y117551D01*
X1473504Y128879D01*
X1478991Y140868D01*
X1484172Y153263D01*
X1489100Y165912D01*
X1493723Y178765D01*
X1497990Y191719D01*
X1501952Y204673D01*
X1505508Y217474D01*
X1508607Y230073D01*
X1511300Y242366D01*
X1513484Y254203D01*
X1515211Y265582D01*
X1516380Y276301D01*
X1517040Y286308D01*
X1517091Y297891D01*
X1516684Y303123D01*
X1515516Y306882D01*
X1513332Y309422D01*
X1509826Y310997D01*
X1504594Y311861D01*
X1497380Y312216D01*
G37*
G36*
X3429000Y1841500D02*
G01*
X3429000Y1739900D01*
X3454400Y1739900D01*
X3454400Y1816100D01*
X3479800Y1816100D01*
X3479800Y1790700D01*
X3505200Y1790700D01*
X3505200Y1816100D01*
X3581400Y1816100D01*
X3581400Y1841500D01*
G37*
G36*
X3505200Y1790700D02*
G01*
X3505200Y1739900D01*
X3530600Y1739900D01*
X3530600Y1790700D01*
G37*
G36*
X3454400Y1739900D02*
G01*
X3454400Y1714500D01*
X3505200Y1714500D01*
X3505200Y1739900D01*
G37*
G36*
X3479800Y1701800D02*
G01*
X3479800Y1676400D01*
X3543300Y1676400D01*
X3543300Y1701800D01*
G37*
G36*
X3403600Y1701800D02*
G01*
X3403600Y1625600D01*
X3429000Y1625600D01*
X3429000Y1701800D01*
G37*
G36*
X3454400Y1676400D02*
G01*
X3454400Y1625600D01*
X3429000Y1625600D01*
X3429000Y1600200D01*
X3543300Y1600200D01*
X3543300Y1625600D01*
X3479800Y1625600D01*
X3479800Y1676400D01*
G37*
G36*
X3517900Y1574800D02*
G01*
X3517900Y1549400D01*
X3543300Y1549400D01*
X3543300Y1574800D01*
G37*
G36*
X3429000Y1574800D02*
G01*
X3429000Y1549400D01*
X3454400Y1549400D01*
X3454400Y1574800D01*
G37*
G36*
X3556000Y1536700D02*
G01*
X3556000Y1485900D01*
X3429000Y1485900D01*
X3429000Y1460500D01*
X3556000Y1460500D01*
X3556000Y1409700D01*
X3581400Y1409700D01*
X3581400Y1536700D01*
G37*
G36*
X3429000Y1397000D02*
G01*
X3429000Y1371600D01*
X3543300Y1371600D01*
X3543300Y1346200D01*
X3517900Y1346200D01*
X3517900Y1320800D01*
X3543300Y1320800D01*
X3543300Y1346200D01*
X3568700Y1346200D01*
X3568700Y1371600D01*
X3581400Y1371600D01*
X3581400Y1397000D01*
G37*
G36*
X3492500Y1320800D02*
G01*
X3492500Y1295400D01*
X3429000Y1295400D01*
X3429000Y1270000D01*
X3581400Y1270000D01*
X3581400Y1295400D01*
X3517900Y1295400D01*
X3517900Y1320800D01*
G37*
G36*
X3556000Y1257300D02*
G01*
X3556000Y1206500D01*
X3429000Y1206500D01*
X3429000Y1181100D01*
X3556000Y1181100D01*
X3556000Y1130300D01*
X3581400Y1130300D01*
X3581400Y1257300D01*
G37*
G36*
X3429000Y1104900D02*
G01*
X3429000Y1054100D01*
X3454400Y1054100D01*
X3454400Y1066800D01*
X3556000Y1066800D01*
X3556000Y1054100D01*
X3581400Y1054100D01*
X3581400Y1104900D01*
X3556000Y1104900D01*
X3556000Y1092200D01*
X3454400Y1092200D01*
X3454400Y1104900D01*
G37*
G36*
X3429000Y1041400D02*
G01*
X3429000Y1016000D01*
X3517900Y1016000D01*
X3517900Y952500D01*
X3543300Y952500D01*
X3543300Y1041400D01*
G37*
G36*
X3429000Y952500D02*
G01*
X3429000Y927100D01*
X3517900Y927100D01*
X3517900Y952500D01*
G37*
G36*
X3429000Y914400D02*
G01*
X3429000Y889000D01*
X3530600Y889000D01*
X3530600Y863600D01*
X3556000Y863600D01*
X3556000Y889000D01*
X3581400Y889000D01*
X3581400Y914400D01*
G37*
G36*
X3505200Y863600D02*
G01*
X3505200Y838200D01*
X3530600Y838200D01*
X3530600Y812800D01*
X3429000Y812800D01*
X3429000Y787400D01*
X3581400Y787400D01*
X3581400Y812800D01*
X3556000Y812800D01*
X3556000Y838200D01*
X3530600Y838200D01*
X3530600Y863600D01*
G37*
G36*
X3556000Y774700D02*
G01*
X3556000Y749300D01*
X3581400Y749300D01*
X3581400Y774700D01*
G37*
G36*
X3429000Y774700D02*
G01*
X3429000Y749300D01*
X3543300Y749300D01*
X3543300Y774700D01*
G37*
G36*
X3429000Y736600D02*
G01*
X3429000Y711200D01*
X3517900Y711200D01*
X3517900Y647700D01*
X3543300Y647700D01*
X3543300Y736600D01*
G37*
G36*
X3429000Y647700D02*
G01*
X3429000Y622300D01*
X3517900Y622300D01*
X3517900Y647700D01*
G37*
G36*
X3454400Y609600D02*
G01*
X3454400Y584200D01*
X3517900Y584200D01*
X3517900Y533400D01*
X3505200Y533400D01*
X3505200Y584200D01*
X3479800Y584200D01*
X3479800Y533400D01*
X3492500Y533400D01*
X3492500Y508000D01*
X3543300Y508000D01*
X3543300Y584200D01*
X3517900Y584200D01*
X3517900Y609600D01*
G37*
G36*
X3429000Y584200D02*
G01*
X3429000Y508000D01*
X3467100Y508000D01*
X3467100Y533400D01*
X3454400Y533400D01*
X3454400Y584200D01*
G37*
G36*
X3454400Y495300D02*
G01*
X3454400Y469900D01*
X3517900Y469900D01*
X3517900Y495300D01*
G37*
G36*
X3517900Y469900D02*
G01*
X3517900Y406400D01*
X3543300Y406400D01*
X3543300Y469900D01*
G37*
G36*
X3429000Y469900D02*
G01*
X3429000Y406400D01*
X3454400Y406400D01*
X3454400Y469900D01*
G37*
G36*
X3492500Y406400D02*
G01*
X3492500Y381000D01*
X3517900Y381000D01*
X3517900Y406400D01*
G37*
G36*
X3454400Y406400D02*
G01*
X3454400Y381000D01*
X3479800Y381000D01*
X3479800Y406400D01*
G37*
G36*
X3429000Y368300D02*
G01*
X3429000Y342900D01*
X3505200Y342900D01*
X3505200Y330200D01*
X3517900Y330200D01*
X3517900Y292100D01*
X3505200Y292100D01*
X3505200Y279400D01*
X3530600Y279400D01*
X3530600Y292100D01*
X3543300Y292100D01*
X3543300Y330200D01*
X3530600Y330200D01*
X3530600Y342900D01*
X3543300Y342900D01*
X3543300Y368300D01*
G37*
G36*
X3517900Y266700D02*
G01*
X3517900Y177800D01*
X3543300Y177800D01*
X3543300Y266700D01*
G37*
G36*
X3454400Y266700D02*
G01*
X3454400Y241300D01*
X3479800Y241300D01*
X3479800Y177800D01*
X3454400Y177800D01*
X3454400Y241300D01*
X3429000Y241300D01*
X3429000Y152400D01*
X3517900Y152400D01*
X3517900Y177800D01*
X3505200Y177800D01*
X3505200Y241300D01*
X3479800Y241300D01*
X3479800Y266700D01*
G37*
G36*
X3517900Y139700D02*
G01*
X3517900Y114300D01*
X3429000Y114300D01*
X3429000Y88900D01*
X3517900Y88900D01*
X3517900Y38100D01*
X3543300Y38100D01*
X3543300Y88900D01*
X3556000Y88900D01*
X3556000Y50800D01*
X3581400Y50800D01*
X3581400Y114300D01*
X3543300Y114300D01*
X3543300Y139700D01*
G37*
G36*
X3517900Y25400D02*
G01*
X3517900Y12700D01*
X3454400Y12700D01*
X3454400Y-12700D01*
X3517900Y-12700D01*
X3517900Y-25400D01*
X3543300Y-25400D01*
X3543300Y-12700D01*
X3568700Y-12700D01*
X3568700Y12700D01*
X3543300Y12700D01*
X3543300Y25400D01*
G37*
G36*
X3429000Y-12700D02*
G01*
X3429000Y-38100D01*
X3454400Y-38100D01*
X3454400Y-12700D01*
G37*
D25*
X2945894Y5943600D02*
G01*
X2978096Y5943600D01*
X2945894Y6197600D02*
G01*
X2978096Y6197600D01*
X2945894Y6451600D02*
G01*
X2978096Y6451600D01*
X2945894Y6705600D02*
G01*
X2978096Y6705600D01*
X2945894Y6959600D02*
G01*
X2978096Y6959600D01*
X2945894Y7213600D02*
G01*
X2978096Y7213600D01*
X2945894Y7467600D02*
G01*
X2978096Y7467600D01*
X2945894Y7721600D02*
G01*
X2978096Y7721600D01*
X2945894Y7975600D02*
G01*
X2978096Y7975600D01*
X2945894Y8229600D02*
G01*
X2978096Y8229600D01*
X2945894Y8483600D02*
G01*
X2978096Y8483600D01*
X2945894Y8737600D02*
G01*
X2978096Y8737600D01*
X2945894Y8991600D02*
G01*
X2978096Y8991600D01*
X2945894Y9245600D02*
G01*
X2978096Y9245600D01*
D26*
X1417995Y5689600D02*
G01*
X1457995Y5689600D01*
X1417995Y5943600D02*
G01*
X1457995Y5943600D01*
X1417995Y6197600D02*
G01*
X1457995Y6197600D01*
X1417995Y6451600D02*
G01*
X1457995Y6451600D01*
X1417995Y6705600D02*
G01*
X1457995Y6705600D01*
X1417995Y6959600D02*
G01*
X1457995Y6959600D01*
X1417995Y7213600D02*
G01*
X1457995Y7213600D01*
X1417995Y7467600D02*
G01*
X1457995Y7467600D01*
X1417995Y7721600D02*
G01*
X1457995Y7721600D01*
X1417995Y7975600D02*
G01*
X1457995Y7975600D01*
X1417995Y8229600D02*
G01*
X1457995Y8229600D01*
X1417995Y8483600D02*
G01*
X1457995Y8483600D01*
X1417995Y8737600D02*
G01*
X1457995Y8737600D01*
X1417995Y8991600D02*
G01*
X1457995Y8991600D01*
X1417995Y9245600D02*
G01*
X1457995Y9245600D01*
G36*
X1277365Y4879847D02*
G01*
X1277365Y4970018D01*
X1577594Y4970018D01*
X1577594Y4879847D01*
G37*
G36*
X1277365Y4729987D02*
G01*
X1277365Y4820157D01*
X1577594Y4820157D01*
X1577594Y4729987D01*
G37*
G36*
X1277365Y4579873D02*
G01*
X1277365Y4670044D01*
X1577594Y4670044D01*
X1577594Y4579873D01*
G37*
G36*
X852423Y4189984D02*
G01*
X852423Y4350004D01*
X1092454Y4350004D01*
X1092454Y4189984D01*
G37*
G36*
X852423Y5050028D02*
G01*
X852423Y5210047D01*
X1092454Y5210047D01*
X1092454Y5050028D01*
G37*
G36*
X1277365Y4430013D02*
G01*
X1277365Y4520184D01*
X1577594Y4520184D01*
X1577594Y4430013D01*
G37*
G36*
X1277365Y2479802D02*
G01*
X1277365Y2569971D01*
X1577594Y2569971D01*
X1577594Y2479802D01*
G37*
G36*
X1277365Y2329942D02*
G01*
X1277365Y2420112D01*
X1577594Y2420112D01*
X1577594Y2329942D01*
G37*
G36*
X1277365Y2179828D02*
G01*
X1277365Y2269997D01*
X1577594Y2269997D01*
X1577594Y2179828D01*
G37*
G36*
X852423Y1789937D02*
G01*
X852423Y1950212D01*
X1092454Y1950212D01*
X1092454Y1789937D01*
G37*
G36*
X852423Y2649981D02*
G01*
X852423Y2810002D01*
X1092454Y2810002D01*
X1092454Y2649981D01*
G37*
G36*
X1277365Y2029968D02*
G01*
X1277365Y2120137D01*
X1577594Y2120137D01*
X1577594Y2029968D01*
G37*
G36*
X1929892Y277368D02*
G01*
X1929892Y577595D01*
X2020061Y577595D01*
X2020061Y277368D01*
G37*
G36*
X2080006Y277368D02*
G01*
X2080006Y577595D01*
X2170175Y577595D01*
X2170175Y277368D01*
G37*
G36*
X2229865Y277368D02*
G01*
X2229865Y577595D01*
X2320036Y577595D01*
X2320036Y277368D01*
G37*
G36*
X2549906Y-147573D02*
G01*
X2549906Y92455D01*
X2710179Y92455D01*
X2710179Y-147573D01*
G37*
G36*
X1689862Y-147573D02*
G01*
X1689862Y92455D01*
X1850136Y92455D01*
X1850136Y-147573D01*
G37*
G36*
X2379979Y277368D02*
G01*
X2379979Y577595D01*
X2470150Y577595D01*
X2470150Y277368D01*
G37*
G36*
X1277365Y3754881D02*
G01*
X1277365Y3845052D01*
X1577594Y3845052D01*
X1577594Y3754881D01*
G37*
G36*
X1277365Y3605021D02*
G01*
X1277365Y3695192D01*
X1577594Y3695192D01*
X1577594Y3605021D01*
G37*
G36*
X1277365Y3454907D02*
G01*
X1277365Y3545078D01*
X1577594Y3545078D01*
X1577594Y3454907D01*
G37*
G36*
X1277365Y3305047D02*
G01*
X1277365Y3394963D01*
X1577594Y3394963D01*
X1577594Y3305047D01*
G37*
G36*
X1277365Y3154934D02*
G01*
X1277365Y3245104D01*
X1577594Y3245104D01*
X1577594Y3154934D01*
G37*
G36*
X852423Y2914904D02*
G01*
X852423Y3075178D01*
X1092454Y3075178D01*
X1092454Y2914904D01*
G37*
G36*
X852423Y3924807D02*
G01*
X852423Y4085081D01*
X1092454Y4085081D01*
X1092454Y3924807D01*
G37*
G36*
X2822447Y4579873D02*
G01*
X2822447Y4670044D01*
X3122675Y4670044D01*
X3122675Y4579873D01*
G37*
G36*
X2822447Y4729987D02*
G01*
X2822447Y4820157D01*
X3122675Y4820157D01*
X3122675Y4729987D01*
G37*
G36*
X3307334Y4339844D02*
G01*
X3307334Y4500118D01*
X3547618Y4500118D01*
X3547618Y4339844D01*
G37*
G36*
X3307334Y4899913D02*
G01*
X3307334Y5060187D01*
X3547618Y5060187D01*
X3547618Y4899913D01*
G37*
G36*
X2822447Y3780028D02*
G01*
X2822447Y3870197D01*
X3122675Y3870197D01*
X3122675Y3780028D01*
G37*
D27*
G01*
X2972511Y3974998D03*
G36*
X3307334Y3539997D02*
G01*
X3307334Y3700018D01*
X3547618Y3700018D01*
X3547618Y3539997D01*
G37*
G36*
X3307334Y4099813D02*
G01*
X3307334Y4260087D01*
X3547618Y4260087D01*
X3547618Y4099813D01*
G37*
G01*
X2972511Y3025012D03*
G36*
X2822447Y3130042D02*
G01*
X2822447Y3219957D01*
X3122675Y3219957D01*
X3122675Y3130042D01*
G37*
G36*
X3307334Y2739897D02*
G01*
X3307334Y2900171D01*
X3547618Y2900171D01*
X3547618Y2739897D01*
G37*
G36*
X3307334Y3299968D02*
G01*
X3307334Y3459987D01*
X3547618Y3459987D01*
X3547618Y3299968D01*
G37*
G36*
X2822447Y2179828D02*
G01*
X2822447Y2269997D01*
X3122675Y2269997D01*
X3122675Y2179828D01*
G37*
G36*
X2822447Y2329942D02*
G01*
X2822447Y2420112D01*
X3122675Y2420112D01*
X3122675Y2329942D01*
G37*
G36*
X3307334Y1939797D02*
G01*
X3307334Y2100071D01*
X3547618Y2100071D01*
X3547618Y1939797D01*
G37*
G36*
X3307334Y2499868D02*
G01*
X3307334Y2660142D01*
X3547618Y2660142D01*
X3547618Y2499868D01*
G37*
G36*
X3216909Y367792D02*
G01*
X3216909Y432054D01*
X3290824Y432054D01*
X3290824Y367792D01*
G37*
G36*
X3109213Y367792D02*
G01*
X3109213Y432054D01*
X3183127Y432054D01*
X3183127Y367792D01*
G37*
G36*
X3216909Y67818D02*
G01*
X3216909Y132079D01*
X3290824Y132079D01*
X3290824Y67818D01*
G37*
G36*
X3109213Y67818D02*
G01*
X3109213Y132079D01*
X3183127Y132079D01*
X3183127Y67818D01*
G37*
G36*
X2229865Y4451604D02*
G01*
X2229865Y4548378D01*
X2320797Y4548378D01*
X2320797Y4451604D01*
G37*
G36*
X2079243Y4451604D02*
G01*
X2079243Y4548378D01*
X2170175Y4548378D01*
X2170175Y4451604D01*
G37*
G36*
X2229865Y4101592D02*
G01*
X2229865Y4198365D01*
X2320797Y4198365D01*
X2320797Y4101592D01*
G37*
G36*
X2079243Y4101592D02*
G01*
X2079243Y4198365D01*
X2170175Y4198365D01*
X2170175Y4101592D01*
G37*
G36*
X2229865Y3751834D02*
G01*
X2229865Y3848354D01*
X2320797Y3848354D01*
X2320797Y3751834D01*
G37*
G36*
X2079243Y3751834D02*
G01*
X2079243Y3848354D01*
X2170175Y3848354D01*
X2170175Y3751834D01*
G37*
G36*
X2229865Y3401821D02*
G01*
X2229865Y3498342D01*
X2320797Y3498342D01*
X2320797Y3401821D01*
G37*
G36*
X2079243Y3401821D02*
G01*
X2079243Y3498342D01*
X2170175Y3498342D01*
X2170175Y3401821D01*
G37*
G36*
X2846831Y5574537D02*
G01*
X2846831Y5804662D01*
X3077209Y5804662D01*
X3077209Y5574537D01*
G37*
M02*
