G04 Layer: BottomSolderMaskLayer*
G04 EasyEDA v6.4.25, 2021-11-07T18:49:49+08:00*
G04 17709bb464344bc48104dd2e4a5a7999,bf42d0b733a240ea811a95ecb7acc88b,10*
G04 Gerber Generator version 0.2*
G04 Scale: 100 percent, Rotated: No, Reflected: No *
G04 Dimensions in millimeters *
G04 leading zeros omitted , absolute positions ,4 integer and 5 decimal *
%FSLAX45Y45*%
%MOMM*%

%ADD25C,1.9812*%
%ADD26C,1.9032*%

%LPD*%
D25*
X2945894Y5943600D02*
G01*
X2978096Y5943600D01*
X2945894Y6197600D02*
G01*
X2978096Y6197600D01*
X2945894Y6451600D02*
G01*
X2978096Y6451600D01*
X2945894Y6705600D02*
G01*
X2978096Y6705600D01*
X2945894Y6959600D02*
G01*
X2978096Y6959600D01*
X2945894Y7213600D02*
G01*
X2978096Y7213600D01*
X2945894Y7467600D02*
G01*
X2978096Y7467600D01*
X2945894Y7721600D02*
G01*
X2978096Y7721600D01*
X2945894Y7975600D02*
G01*
X2978096Y7975600D01*
X2945894Y8229600D02*
G01*
X2978096Y8229600D01*
X2945894Y8483600D02*
G01*
X2978096Y8483600D01*
X2945894Y8737600D02*
G01*
X2978096Y8737600D01*
X2945894Y8991600D02*
G01*
X2978096Y8991600D01*
X2945894Y9245600D02*
G01*
X2978096Y9245600D01*
D26*
X1417995Y5689600D02*
G01*
X1457995Y5689600D01*
X1417995Y5943600D02*
G01*
X1457995Y5943600D01*
X1417995Y6197600D02*
G01*
X1457995Y6197600D01*
X1417995Y6451600D02*
G01*
X1457995Y6451600D01*
X1417995Y6705600D02*
G01*
X1457995Y6705600D01*
X1417995Y6959600D02*
G01*
X1457995Y6959600D01*
X1417995Y7213600D02*
G01*
X1457995Y7213600D01*
X1417995Y7467600D02*
G01*
X1457995Y7467600D01*
X1417995Y7721600D02*
G01*
X1457995Y7721600D01*
X1417995Y7975600D02*
G01*
X1457995Y7975600D01*
X1417995Y8229600D02*
G01*
X1457995Y8229600D01*
X1417995Y8483600D02*
G01*
X1457995Y8483600D01*
X1417995Y8737600D02*
G01*
X1457995Y8737600D01*
X1417995Y8991600D02*
G01*
X1457995Y8991600D01*
X1417995Y9245600D02*
G01*
X1457995Y9245600D01*
G36*
X2846831Y5574537D02*
G01*
X2846831Y5804662D01*
X3077209Y5804662D01*
X3077209Y5574537D01*
G37*
M02*
