G04 Layer: TopSilkLayer*
G04 EasyEDA v6.4.25, 2021-11-07T18:49:49+08:00*
G04 d23bd0d7be1842068ba5471e3ed9ef93,bf42d0b733a240ea811a95ecb7acc88b,10*
G04 Gerber Generator version 0.2*
G04 Scale: 100 percent, Rotated: No, Reflected: No *
G04 Dimensions in millimeters *
G04 leading zeros omitted , absolute positions ,4 integer and 5 decimal *
%FSLAX45Y45*%
%MOMM*%

%ADD10C,0.2540*%
%ADD23C,0.1524*%
%ADD24C,0.0762*%
%ADD25C,0.2032*%

%LPD*%
D23*
X1733329Y1613913D02*
G01*
X1624109Y1613913D01*
X1733329Y1613913D02*
G01*
X1733329Y1546349D01*
X1681259Y1613913D02*
G01*
X1681259Y1572257D01*
X1733329Y1512059D02*
G01*
X1624109Y1512059D01*
X1733329Y1477769D02*
G01*
X1624109Y1477769D01*
X1733329Y1477769D02*
G01*
X1624109Y1405125D01*
X1733329Y1405125D02*
G01*
X1624109Y1405125D01*
X1707421Y1292857D02*
G01*
X1717835Y1297937D01*
X1728249Y1308351D01*
X1733329Y1318765D01*
X1733329Y1339593D01*
X1728249Y1350007D01*
X1717835Y1360421D01*
X1707421Y1365501D01*
X1691673Y1370835D01*
X1665765Y1370835D01*
X1650271Y1365501D01*
X1639857Y1360421D01*
X1629443Y1350007D01*
X1624109Y1339593D01*
X1624109Y1318765D01*
X1629443Y1308351D01*
X1639857Y1297937D01*
X1650271Y1292857D01*
X1665765Y1292857D01*
X1665765Y1318765D02*
G01*
X1665765Y1292857D01*
X1733329Y1258567D02*
G01*
X1624109Y1258567D01*
X1733329Y1258567D02*
G01*
X1733329Y1191003D01*
X1681259Y1258567D02*
G01*
X1681259Y1216911D01*
X1624109Y1258567D02*
G01*
X1624109Y1191003D01*
X1733329Y1156713D02*
G01*
X1624109Y1156713D01*
X1733329Y1156713D02*
G01*
X1733329Y1109977D01*
X1728249Y1094229D01*
X1722915Y1089149D01*
X1712501Y1084069D01*
X1702087Y1084069D01*
X1691673Y1089149D01*
X1686593Y1094229D01*
X1681259Y1109977D01*
X1681259Y1156713D01*
X1681259Y1120391D02*
G01*
X1624109Y1084069D01*
X1733374Y4013913D02*
G01*
X1624154Y4013913D01*
X1624154Y4013913D02*
G01*
X1624154Y3951429D01*
X1733374Y3917139D02*
G01*
X1624154Y3917139D01*
X1733374Y3917139D02*
G01*
X1733374Y3849829D01*
X1681304Y3917139D02*
G01*
X1681304Y3875737D01*
X1624154Y3917139D02*
G01*
X1624154Y3849829D01*
X1733374Y3815539D02*
G01*
X1624154Y3815539D01*
X1733374Y3815539D02*
G01*
X1733374Y3778963D01*
X1728040Y3763469D01*
X1717626Y3753055D01*
X1707466Y3747975D01*
X1691718Y3742641D01*
X1665810Y3742641D01*
X1650316Y3747975D01*
X1639902Y3753055D01*
X1629488Y3763469D01*
X1624154Y3778963D01*
X1624154Y3815539D01*
X1733270Y5182671D02*
G01*
X1728190Y5193085D01*
X1717776Y5203499D01*
X1707362Y5208579D01*
X1691868Y5213913D01*
X1665706Y5213913D01*
X1650212Y5208579D01*
X1639798Y5203499D01*
X1629384Y5193085D01*
X1624304Y5182671D01*
X1624304Y5161843D01*
X1629384Y5151429D01*
X1639798Y5141269D01*
X1650212Y5135935D01*
X1665706Y5130855D01*
X1691868Y5130855D01*
X1707362Y5135935D01*
X1717776Y5141269D01*
X1728190Y5151429D01*
X1733270Y5161843D01*
X1733270Y5182671D01*
X1733270Y5096565D02*
G01*
X1624304Y5096565D01*
X1624304Y5096565D02*
G01*
X1624304Y5034081D01*
X1733270Y4999791D02*
G01*
X1624304Y4999791D01*
X1733270Y4999791D02*
G01*
X1733270Y4932227D01*
X1681454Y4999791D02*
G01*
X1681454Y4958389D01*
X1624304Y4999791D02*
G01*
X1624304Y4932227D01*
X1733270Y4897937D02*
G01*
X1624304Y4897937D01*
X1733270Y4897937D02*
G01*
X1733270Y4861615D01*
X1728190Y4846121D01*
X1717776Y4835707D01*
X1707362Y4830373D01*
X1691868Y4825293D01*
X1665706Y4825293D01*
X1650212Y4830373D01*
X1639798Y4835707D01*
X1629384Y4846121D01*
X1624304Y4861615D01*
X1624304Y4897937D01*
X2186177Y1233423D02*
G01*
X2186177Y1124204D01*
X2251456Y1233423D02*
G01*
X2241295Y1228089D01*
X2230881Y1217676D01*
X2225547Y1207262D01*
X2220468Y1191768D01*
X2220468Y1165860D01*
X2225547Y1150112D01*
X2230881Y1139697D01*
X2241295Y1129537D01*
X2251456Y1124204D01*
X2272284Y1124204D01*
X2282697Y1129537D01*
X2293111Y1139697D01*
X2298445Y1150112D01*
X2303525Y1165860D01*
X2303525Y1191768D01*
X2298445Y1207262D01*
X2293111Y1217676D01*
X2282697Y1228089D01*
X2272284Y1233423D01*
X2251456Y1233423D01*
X1720522Y2801216D02*
G01*
X1611556Y2801216D01*
X1720522Y2801216D02*
G01*
X1720522Y2754480D01*
X1715442Y2738732D01*
X1710362Y2733652D01*
X1699948Y2728572D01*
X1684200Y2728572D01*
X1673786Y2733652D01*
X1668706Y2738732D01*
X1663372Y2754480D01*
X1663372Y2801216D01*
X1705028Y2621384D02*
G01*
X1715442Y2631798D01*
X1720522Y2647292D01*
X1720522Y2668120D01*
X1715442Y2683868D01*
X1705028Y2694282D01*
X1694614Y2694282D01*
X1684200Y2688948D01*
X1679120Y2683868D01*
X1673786Y2673454D01*
X1663372Y2642212D01*
X1658292Y2631798D01*
X1653212Y2626718D01*
X1642798Y2621384D01*
X1627050Y2621384D01*
X1616636Y2631798D01*
X1611556Y2647292D01*
X1611556Y2668120D01*
X1616636Y2683868D01*
X1627050Y2694282D01*
X1720522Y2587094D02*
G01*
X1611556Y2561186D01*
X1720522Y2535278D02*
G01*
X1611556Y2561186D01*
X1720522Y2535278D02*
G01*
X1611556Y2509116D01*
X1720522Y2483208D02*
G01*
X1611556Y2509116D01*
X2669905Y2779720D02*
G01*
X2778871Y2779720D01*
X2778871Y2779720D02*
G01*
X2778871Y2842204D01*
X2669905Y2907736D02*
G01*
X2674985Y2897322D01*
X2685399Y2886908D01*
X2695813Y2881574D01*
X2711307Y2876494D01*
X2737469Y2876494D01*
X2752963Y2881574D01*
X2763377Y2886908D01*
X2773791Y2897322D01*
X2778871Y2907736D01*
X2778871Y2928310D01*
X2773791Y2938724D01*
X2763377Y2949138D01*
X2752963Y2954472D01*
X2737469Y2959552D01*
X2711307Y2959552D01*
X2695813Y2954472D01*
X2685399Y2949138D01*
X2674985Y2938724D01*
X2669905Y2928310D01*
X2669905Y2907736D01*
X2695813Y3071820D02*
G01*
X2685399Y3066486D01*
X2674985Y3056326D01*
X2669905Y3045912D01*
X2669905Y3025084D01*
X2674985Y3014670D01*
X2685399Y3004256D01*
X2695813Y2999176D01*
X2711307Y2993842D01*
X2737469Y2993842D01*
X2752963Y2999176D01*
X2763377Y3004256D01*
X2773791Y3014670D01*
X2778871Y3025084D01*
X2778871Y3045912D01*
X2773791Y3056326D01*
X2763377Y3066486D01*
X2752963Y3071820D01*
X2669905Y3106110D02*
G01*
X2778871Y3106110D01*
X2669905Y3178754D02*
G01*
X2742549Y3106110D01*
X2716641Y3132018D02*
G01*
X2778871Y3178754D01*
X2669860Y5179720D02*
G01*
X2779080Y5179720D01*
X2779080Y5179720D02*
G01*
X2779080Y5242204D01*
X2669860Y5276494D02*
G01*
X2779080Y5276494D01*
X2695768Y5388762D02*
G01*
X2685354Y5383428D01*
X2674940Y5373014D01*
X2669860Y5362600D01*
X2669860Y5342026D01*
X2674940Y5331612D01*
X2685354Y5321198D01*
X2695768Y5315864D01*
X2711516Y5310784D01*
X2737424Y5310784D01*
X2752918Y5315864D01*
X2763332Y5321198D01*
X2773746Y5331612D01*
X2779080Y5342026D01*
X2779080Y5362600D01*
X2773746Y5373014D01*
X2763332Y5383428D01*
X2752918Y5388762D01*
X2737424Y5388762D01*
X2737424Y5362600D02*
G01*
X2737424Y5388762D01*
X2669860Y5423052D02*
G01*
X2779080Y5423052D01*
X2669860Y5495696D02*
G01*
X2779080Y5495696D01*
X2721930Y5423052D02*
G01*
X2721930Y5495696D01*
X2669860Y5566308D02*
G01*
X2779080Y5566308D01*
X2669860Y5529986D02*
G01*
X2669860Y5602630D01*
X2669959Y4379719D02*
G01*
X2778925Y4379719D01*
X2669959Y4379719D02*
G01*
X2669959Y4426455D01*
X2675039Y4442203D01*
X2680119Y4447283D01*
X2690533Y4452617D01*
X2700947Y4452617D01*
X2711361Y4447283D01*
X2716695Y4442203D01*
X2721775Y4426455D01*
X2721775Y4379719D02*
G01*
X2721775Y4426455D01*
X2727109Y4442203D01*
X2732189Y4447283D01*
X2742603Y4452617D01*
X2758097Y4452617D01*
X2768511Y4447283D01*
X2773845Y4442203D01*
X2778925Y4426455D01*
X2778925Y4379719D01*
X2669959Y4486907D02*
G01*
X2778925Y4486907D01*
X2778925Y4486907D02*
G01*
X2778925Y4549137D01*
X2669959Y4625083D02*
G01*
X2778925Y4583427D01*
X2669959Y4625083D02*
G01*
X2778925Y4666485D01*
X2742603Y4599175D02*
G01*
X2742603Y4650991D01*
X2695867Y4778753D02*
G01*
X2685453Y4773673D01*
X2675039Y4763259D01*
X2669959Y4752845D01*
X2669959Y4732017D01*
X2675039Y4721603D01*
X2685453Y4711189D01*
X2695867Y4706109D01*
X2711361Y4700775D01*
X2737269Y4700775D01*
X2753017Y4706109D01*
X2763431Y4711189D01*
X2773845Y4721603D01*
X2778925Y4732017D01*
X2778925Y4752845D01*
X2773845Y4763259D01*
X2763431Y4773673D01*
X2753017Y4778753D01*
X2669959Y4813043D02*
G01*
X2778925Y4813043D01*
X2669959Y4885941D02*
G01*
X2742603Y4813043D01*
X2716695Y4839205D02*
G01*
X2778925Y4885941D01*
X2669806Y3579721D02*
G01*
X2779026Y3579721D01*
X2669806Y3579721D02*
G01*
X2669806Y3626457D01*
X2675140Y3642205D01*
X2680220Y3647285D01*
X2690634Y3652619D01*
X2706128Y3652619D01*
X2716542Y3647285D01*
X2721876Y3642205D01*
X2726956Y3626457D01*
X2726956Y3579721D01*
X2695714Y3764887D02*
G01*
X2685554Y3759553D01*
X2675140Y3749139D01*
X2669806Y3738725D01*
X2669806Y3717897D01*
X2675140Y3707737D01*
X2685554Y3697323D01*
X2695714Y3691989D01*
X2711462Y3686909D01*
X2737370Y3686909D01*
X2752864Y3691989D01*
X2763278Y3697323D01*
X2773692Y3707737D01*
X2779026Y3717897D01*
X2779026Y3738725D01*
X2773692Y3749139D01*
X2763278Y3759553D01*
X2752864Y3764887D01*
X2774695Y1816862D02*
G01*
X2774695Y1707895D01*
X2774695Y1816862D02*
G01*
X2821431Y1816862D01*
X2836925Y1811781D01*
X2842259Y1806447D01*
X2847340Y1796034D01*
X2847340Y1785873D01*
X2842259Y1775460D01*
X2836925Y1770126D01*
X2821431Y1765045D01*
X2774695Y1765045D01*
X2811018Y1765045D02*
G01*
X2847340Y1707895D01*
X2881629Y1816862D02*
G01*
X2954274Y1707895D01*
X2954274Y1816862D02*
G01*
X2881629Y1707895D01*
X2811018Y1417065D02*
G01*
X2811018Y1307845D01*
X2774695Y1417065D02*
G01*
X2847340Y1417065D01*
X2881629Y1417065D02*
G01*
X2954274Y1307845D01*
X2954274Y1417065D02*
G01*
X2881629Y1307845D01*
X2200000Y5119115D02*
G01*
X2200000Y5010150D01*
X2200000Y5119115D02*
G01*
X2246736Y5119115D01*
X2262230Y5114036D01*
X2267564Y5108702D01*
X2272644Y5098287D01*
X2272644Y5087873D01*
X2267564Y5077460D01*
X2262230Y5072379D01*
X2246736Y5067300D01*
X2200000Y5067300D01*
X2236322Y5067300D02*
G01*
X2272644Y5010150D01*
X2306934Y5098287D02*
G01*
X2317348Y5103621D01*
X2333096Y5119115D01*
X2333096Y5010150D01*
X2200000Y4801615D02*
G01*
X2200000Y4692650D01*
X2200000Y4801615D02*
G01*
X2246736Y4801615D01*
X2262230Y4796536D01*
X2267564Y4791202D01*
X2272644Y4780787D01*
X2272644Y4770373D01*
X2267564Y4759960D01*
X2262230Y4754879D01*
X2246736Y4749800D01*
X2200000Y4749800D01*
X2236322Y4749800D02*
G01*
X2272644Y4692650D01*
X2312268Y4775707D02*
G01*
X2312268Y4780787D01*
X2317348Y4791202D01*
X2322682Y4796536D01*
X2333096Y4801615D01*
X2353670Y4801615D01*
X2364084Y4796536D01*
X2369418Y4791202D01*
X2374498Y4780787D01*
X2374498Y4770373D01*
X2369418Y4759960D01*
X2359004Y4744465D01*
X2306934Y4692650D01*
X2379832Y4692650D01*
X2200000Y4357115D02*
G01*
X2200000Y4248150D01*
X2200000Y4357115D02*
G01*
X2246736Y4357115D01*
X2262230Y4352036D01*
X2267564Y4346702D01*
X2272644Y4336287D01*
X2272644Y4325873D01*
X2267564Y4315460D01*
X2262230Y4310379D01*
X2246736Y4305300D01*
X2200000Y4305300D01*
X2236322Y4305300D02*
G01*
X2272644Y4248150D01*
X2317348Y4357115D02*
G01*
X2374498Y4357115D01*
X2343510Y4315460D01*
X2359004Y4315460D01*
X2369418Y4310379D01*
X2374498Y4305300D01*
X2379832Y4289552D01*
X2379832Y4279137D01*
X2374498Y4263644D01*
X2364084Y4253229D01*
X2348590Y4248150D01*
X2333096Y4248150D01*
X2317348Y4253229D01*
X2312268Y4258310D01*
X2306934Y4268723D01*
X2200000Y3963415D02*
G01*
X2200000Y3854450D01*
X2200000Y3963415D02*
G01*
X2246736Y3963415D01*
X2262230Y3958336D01*
X2267564Y3953002D01*
X2272644Y3942587D01*
X2272644Y3932173D01*
X2267564Y3921760D01*
X2262230Y3916679D01*
X2246736Y3911600D01*
X2200000Y3911600D01*
X2236322Y3911600D02*
G01*
X2272644Y3854450D01*
X2359004Y3963415D02*
G01*
X2306934Y3890771D01*
X2384912Y3890771D01*
X2359004Y3963415D02*
G01*
X2359004Y3854450D01*
X2200107Y5674898D02*
G01*
X2200107Y5783864D01*
X2200107Y5674898D02*
G01*
X2127209Y5783864D01*
X2127209Y5674898D02*
G01*
X2127209Y5783864D01*
X2051517Y5674898D02*
G01*
X2092919Y5783864D01*
X2051517Y5674898D02*
G01*
X2009861Y5783864D01*
X2077425Y5747542D02*
G01*
X2025355Y5747542D01*
X1975571Y5674898D02*
G01*
X1975571Y5783864D01*
X1975571Y5674898D02*
G01*
X1902927Y5783864D01*
X1902927Y5674898D02*
G01*
X1902927Y5783864D01*
X1837395Y5674898D02*
G01*
X1847809Y5679978D01*
X1858223Y5690392D01*
X1863303Y5700806D01*
X1868637Y5716300D01*
X1868637Y5742462D01*
X1863303Y5757956D01*
X1858223Y5768370D01*
X1847809Y5778784D01*
X1837395Y5783864D01*
X1816567Y5783864D01*
X1806153Y5778784D01*
X1795739Y5768370D01*
X1790659Y5757956D01*
X1785325Y5742462D01*
X1785325Y5716300D01*
X1790659Y5700806D01*
X1795739Y5690392D01*
X1806153Y5679978D01*
X1816567Y5674898D01*
X1837395Y5674898D01*
D25*
X2802742Y6166627D02*
G01*
X2802742Y6263655D01*
X2835000Y6166627D02*
G01*
X2770230Y6166627D01*
X2739750Y6166627D02*
G01*
X2675234Y6263655D01*
X2675234Y6166627D02*
G01*
X2739750Y6263655D01*
X2644754Y6185169D02*
G01*
X2635610Y6180343D01*
X2621640Y6166627D01*
X2621640Y6263655D01*
X1749658Y6443741D02*
G01*
X1754230Y6434343D01*
X1763628Y6425199D01*
X1772772Y6420627D01*
X1791314Y6420627D01*
X1800458Y6425199D01*
X1809856Y6434343D01*
X1814428Y6443741D01*
X1819000Y6457457D01*
X1819000Y6480571D01*
X1814428Y6494541D01*
X1809856Y6503685D01*
X1800458Y6512829D01*
X1791314Y6517655D01*
X1772772Y6517655D01*
X1763628Y6512829D01*
X1754230Y6503685D01*
X1749658Y6494541D01*
X1749658Y6480571D01*
X1772772Y6480571D02*
G01*
X1749658Y6480571D01*
X1719178Y6420627D02*
G01*
X1719178Y6517655D01*
X1719178Y6420627D02*
G01*
X1654662Y6517655D01*
X1654662Y6420627D02*
G01*
X1654662Y6517655D01*
X1624182Y6420627D02*
G01*
X1624182Y6517655D01*
X1624182Y6420627D02*
G01*
X1591670Y6420627D01*
X1577954Y6425199D01*
X1568810Y6434343D01*
X1563984Y6443741D01*
X1559412Y6457457D01*
X1559412Y6480571D01*
X1563984Y6494541D01*
X1568810Y6503685D01*
X1577954Y6512829D01*
X1591670Y6517655D01*
X1624182Y6517655D01*
X1662028Y6928627D02*
G01*
X1708256Y6928627D01*
X1712828Y6970029D01*
X1708256Y6965457D01*
X1694286Y6960885D01*
X1680570Y6960885D01*
X1666600Y6965457D01*
X1657456Y6974855D01*
X1652630Y6988571D01*
X1652630Y6997969D01*
X1657456Y7011685D01*
X1666600Y7020829D01*
X1680570Y7025655D01*
X1694286Y7025655D01*
X1708256Y7020829D01*
X1712828Y7016257D01*
X1717400Y7007113D01*
X1622150Y6928627D02*
G01*
X1585320Y7025655D01*
X1548490Y6928627D02*
G01*
X1585320Y7025655D01*
X2835000Y9748027D02*
G01*
X2835000Y9845055D01*
X2835000Y9748027D02*
G01*
X2802742Y9748027D01*
X2788772Y9752599D01*
X2779628Y9761743D01*
X2775056Y9771141D01*
X2770230Y9784857D01*
X2770230Y9807971D01*
X2775056Y9821941D01*
X2779628Y9831085D01*
X2788772Y9840229D01*
X2802742Y9845055D01*
X2835000Y9845055D01*
X2739750Y9766569D02*
G01*
X2730606Y9761743D01*
X2716890Y9748027D01*
X2716890Y9845055D01*
X2681584Y9771141D02*
G01*
X2681584Y9766569D01*
X2677012Y9757171D01*
X2672440Y9752599D01*
X2663296Y9748027D01*
X2644754Y9748027D01*
X2635610Y9752599D01*
X2630784Y9757171D01*
X2626212Y9766569D01*
X2626212Y9775713D01*
X2630784Y9784857D01*
X2640182Y9798827D01*
X2686410Y9845055D01*
X2621640Y9845055D01*
X1742800Y6166627D02*
G01*
X1705970Y6263655D01*
X1668886Y6166627D02*
G01*
X1705970Y6263655D01*
X1638406Y6166627D02*
G01*
X1633834Y6171199D01*
X1629262Y6166627D01*
X1633834Y6162055D01*
X1638406Y6166627D01*
X1633834Y6198885D02*
G01*
X1633834Y6263655D01*
X1598782Y6198885D02*
G01*
X1598782Y6263655D01*
X1598782Y6217427D02*
G01*
X1584812Y6203457D01*
X1575668Y6198885D01*
X1561698Y6198885D01*
X1552554Y6203457D01*
X1547982Y6217427D01*
X1547982Y6263655D01*
X1768200Y9748027D02*
G01*
X1768200Y9845055D01*
X1768200Y9748027D02*
G01*
X1735942Y9748027D01*
X1721972Y9752599D01*
X1712828Y9761743D01*
X1708256Y9771141D01*
X1703430Y9784857D01*
X1703430Y9807971D01*
X1708256Y9821941D01*
X1712828Y9831085D01*
X1721972Y9840229D01*
X1735942Y9845055D01*
X1768200Y9845055D01*
X1672950Y9766569D02*
G01*
X1663806Y9761743D01*
X1650090Y9748027D01*
X1650090Y9845055D01*
X1610212Y9748027D02*
G01*
X1559412Y9748027D01*
X1587098Y9784857D01*
X1573382Y9784857D01*
X1563984Y9789429D01*
X1559412Y9794255D01*
X1554840Y9807971D01*
X1554840Y9817369D01*
X1559412Y9831085D01*
X1568810Y9840229D01*
X1582526Y9845055D01*
X1596496Y9845055D01*
X1610212Y9840229D01*
X1614784Y9835657D01*
X1619610Y9826513D01*
X2765658Y6951741D02*
G01*
X2770230Y6942343D01*
X2779628Y6933199D01*
X2788772Y6928627D01*
X2807314Y6928627D01*
X2816458Y6933199D01*
X2825856Y6942343D01*
X2830428Y6951741D01*
X2835000Y6965457D01*
X2835000Y6988571D01*
X2830428Y7002541D01*
X2825856Y7011685D01*
X2816458Y7020829D01*
X2807314Y7025655D01*
X2788772Y7025655D01*
X2779628Y7020829D01*
X2770230Y7011685D01*
X2765658Y7002541D01*
X2765658Y6988571D01*
X2788772Y6988571D02*
G01*
X2765658Y6988571D01*
X2735178Y6928627D02*
G01*
X2735178Y7025655D01*
X2735178Y6928627D02*
G01*
X2670662Y7025655D01*
X2670662Y6928627D02*
G01*
X2670662Y7025655D01*
X2640182Y6928627D02*
G01*
X2640182Y7025655D01*
X2640182Y6928627D02*
G01*
X2607670Y6928627D01*
X2593954Y6933199D01*
X2584810Y6942343D01*
X2579984Y6951741D01*
X2575412Y6965457D01*
X2575412Y6988571D01*
X2579984Y7002541D01*
X2584810Y7011685D01*
X2593954Y7020829D01*
X2607670Y7025655D01*
X2640182Y7025655D01*
X2835000Y6420627D02*
G01*
X2835000Y6517655D01*
X2835000Y6420627D02*
G01*
X2793344Y6420627D01*
X2779628Y6425199D01*
X2775056Y6429771D01*
X2770230Y6439169D01*
X2770230Y6448313D01*
X2775056Y6457457D01*
X2779628Y6462029D01*
X2793344Y6466855D01*
X2835000Y6466855D01*
X2802742Y6466855D02*
G01*
X2770230Y6517655D01*
X2739750Y6420627D02*
G01*
X2675234Y6517655D01*
X2675234Y6420627D02*
G01*
X2739750Y6517655D01*
X2644754Y6439169D02*
G01*
X2635610Y6434343D01*
X2621640Y6420627D01*
X2621640Y6517655D01*
X2835000Y6700027D02*
G01*
X2835000Y6797055D01*
X2835000Y6700027D02*
G01*
X2793344Y6700027D01*
X2779628Y6704599D01*
X2775056Y6709171D01*
X2770230Y6718569D01*
X2770230Y6727713D01*
X2775056Y6736857D01*
X2779628Y6741429D01*
X2793344Y6746255D01*
X2835000Y6746255D01*
X2802742Y6746255D02*
G01*
X2770230Y6797055D01*
X2675234Y6713743D02*
G01*
X2684378Y6704599D01*
X2698348Y6700027D01*
X2716890Y6700027D01*
X2730606Y6704599D01*
X2739750Y6713743D01*
X2739750Y6723141D01*
X2735178Y6732285D01*
X2730606Y6736857D01*
X2721462Y6741429D01*
X2693776Y6750827D01*
X2684378Y6755399D01*
X2679806Y6759971D01*
X2675234Y6769369D01*
X2675234Y6783085D01*
X2684378Y6792229D01*
X2698348Y6797055D01*
X2716890Y6797055D01*
X2730606Y6792229D01*
X2739750Y6783085D01*
X2612496Y6700027D02*
G01*
X2612496Y6797055D01*
X2644754Y6700027D02*
G01*
X2579984Y6700027D01*
X2835000Y7208027D02*
G01*
X2835000Y7305055D01*
X2835000Y7208027D02*
G01*
X2802742Y7208027D01*
X2788772Y7212599D01*
X2779628Y7221743D01*
X2775056Y7231141D01*
X2770230Y7244857D01*
X2770230Y7267971D01*
X2775056Y7281941D01*
X2779628Y7291085D01*
X2788772Y7300229D01*
X2802742Y7305055D01*
X2835000Y7305055D01*
X2735178Y7231141D02*
G01*
X2735178Y7226569D01*
X2730606Y7217171D01*
X2726034Y7212599D01*
X2716890Y7208027D01*
X2698348Y7208027D01*
X2688950Y7212599D01*
X2684378Y7217171D01*
X2679806Y7226569D01*
X2679806Y7235713D01*
X2684378Y7244857D01*
X2693776Y7258827D01*
X2739750Y7305055D01*
X2675234Y7305055D01*
X2835000Y7462027D02*
G01*
X2835000Y7559055D01*
X2835000Y7462027D02*
G01*
X2802742Y7462027D01*
X2788772Y7466599D01*
X2779628Y7475743D01*
X2775056Y7485141D01*
X2770230Y7498857D01*
X2770230Y7521971D01*
X2775056Y7535941D01*
X2779628Y7545085D01*
X2788772Y7554229D01*
X2802742Y7559055D01*
X2835000Y7559055D01*
X2730606Y7462027D02*
G01*
X2679806Y7462027D01*
X2707492Y7498857D01*
X2693776Y7498857D01*
X2684378Y7503429D01*
X2679806Y7508255D01*
X2675234Y7521971D01*
X2675234Y7531369D01*
X2679806Y7545085D01*
X2688950Y7554229D01*
X2702920Y7559055D01*
X2716890Y7559055D01*
X2730606Y7554229D01*
X2735178Y7549657D01*
X2739750Y7540513D01*
X2835000Y7716027D02*
G01*
X2835000Y7813055D01*
X2835000Y7716027D02*
G01*
X2802742Y7716027D01*
X2788772Y7720599D01*
X2779628Y7729743D01*
X2775056Y7739141D01*
X2770230Y7752857D01*
X2770230Y7775971D01*
X2775056Y7789941D01*
X2779628Y7799085D01*
X2788772Y7808229D01*
X2802742Y7813055D01*
X2835000Y7813055D01*
X2693776Y7716027D02*
G01*
X2739750Y7780543D01*
X2670662Y7780543D01*
X2693776Y7716027D02*
G01*
X2693776Y7813055D01*
X2835000Y7970027D02*
G01*
X2835000Y8067055D01*
X2835000Y7970027D02*
G01*
X2802742Y7970027D01*
X2788772Y7974599D01*
X2779628Y7983743D01*
X2775056Y7993141D01*
X2770230Y8006857D01*
X2770230Y8029971D01*
X2775056Y8043941D01*
X2779628Y8053085D01*
X2788772Y8062229D01*
X2802742Y8067055D01*
X2835000Y8067055D01*
X2684378Y7970027D02*
G01*
X2730606Y7970027D01*
X2735178Y8011429D01*
X2730606Y8006857D01*
X2716890Y8002285D01*
X2702920Y8002285D01*
X2688950Y8006857D01*
X2679806Y8016255D01*
X2675234Y8029971D01*
X2675234Y8039369D01*
X2679806Y8053085D01*
X2688950Y8062229D01*
X2702920Y8067055D01*
X2716890Y8067055D01*
X2730606Y8062229D01*
X2735178Y8057657D01*
X2739750Y8048513D01*
X2835000Y8224027D02*
G01*
X2835000Y8321055D01*
X2835000Y8224027D02*
G01*
X2802742Y8224027D01*
X2788772Y8228599D01*
X2779628Y8237743D01*
X2775056Y8247141D01*
X2770230Y8260857D01*
X2770230Y8283971D01*
X2775056Y8297941D01*
X2779628Y8307085D01*
X2788772Y8316229D01*
X2802742Y8321055D01*
X2835000Y8321055D01*
X2684378Y8237743D02*
G01*
X2688950Y8228599D01*
X2702920Y8224027D01*
X2712064Y8224027D01*
X2726034Y8228599D01*
X2735178Y8242569D01*
X2739750Y8265429D01*
X2739750Y8288543D01*
X2735178Y8307085D01*
X2726034Y8316229D01*
X2712064Y8321055D01*
X2707492Y8321055D01*
X2693776Y8316229D01*
X2684378Y8307085D01*
X2679806Y8293369D01*
X2679806Y8288543D01*
X2684378Y8274827D01*
X2693776Y8265429D01*
X2707492Y8260857D01*
X2712064Y8260857D01*
X2726034Y8265429D01*
X2735178Y8274827D01*
X2739750Y8288543D01*
X2835000Y8478027D02*
G01*
X2835000Y8575055D01*
X2835000Y8478027D02*
G01*
X2802742Y8478027D01*
X2788772Y8482599D01*
X2779628Y8491743D01*
X2775056Y8501141D01*
X2770230Y8514857D01*
X2770230Y8537971D01*
X2775056Y8551941D01*
X2779628Y8561085D01*
X2788772Y8570229D01*
X2802742Y8575055D01*
X2835000Y8575055D01*
X2675234Y8478027D02*
G01*
X2721462Y8575055D01*
X2739750Y8478027D02*
G01*
X2675234Y8478027D01*
X2835000Y8732027D02*
G01*
X2835000Y8829055D01*
X2835000Y8732027D02*
G01*
X2802742Y8732027D01*
X2788772Y8736599D01*
X2779628Y8745743D01*
X2775056Y8755141D01*
X2770230Y8768857D01*
X2770230Y8791971D01*
X2775056Y8805941D01*
X2779628Y8815085D01*
X2788772Y8824229D01*
X2802742Y8829055D01*
X2835000Y8829055D01*
X2716890Y8732027D02*
G01*
X2730606Y8736599D01*
X2735178Y8745743D01*
X2735178Y8755141D01*
X2730606Y8764285D01*
X2721462Y8768857D01*
X2702920Y8773429D01*
X2688950Y8778255D01*
X2679806Y8787399D01*
X2675234Y8796543D01*
X2675234Y8810513D01*
X2679806Y8819657D01*
X2684378Y8824229D01*
X2698348Y8829055D01*
X2716890Y8829055D01*
X2730606Y8824229D01*
X2735178Y8819657D01*
X2739750Y8810513D01*
X2739750Y8796543D01*
X2735178Y8787399D01*
X2726034Y8778255D01*
X2712064Y8773429D01*
X2693776Y8768857D01*
X2684378Y8764285D01*
X2679806Y8755141D01*
X2679806Y8745743D01*
X2684378Y8736599D01*
X2698348Y8732027D01*
X2716890Y8732027D01*
X2835000Y8986027D02*
G01*
X2835000Y9083055D01*
X2835000Y8986027D02*
G01*
X2802742Y8986027D01*
X2788772Y8990599D01*
X2779628Y8999743D01*
X2775056Y9009141D01*
X2770230Y9022857D01*
X2770230Y9045971D01*
X2775056Y9059941D01*
X2779628Y9069085D01*
X2788772Y9078229D01*
X2802742Y9083055D01*
X2835000Y9083055D01*
X2679806Y9018285D02*
G01*
X2684378Y9032255D01*
X2693776Y9041399D01*
X2707492Y9045971D01*
X2712064Y9045971D01*
X2726034Y9041399D01*
X2735178Y9032255D01*
X2739750Y9018285D01*
X2739750Y9013713D01*
X2735178Y8999743D01*
X2726034Y8990599D01*
X2712064Y8986027D01*
X2707492Y8986027D01*
X2693776Y8990599D01*
X2684378Y8999743D01*
X2679806Y9018285D01*
X2679806Y9041399D01*
X2684378Y9064513D01*
X2693776Y9078229D01*
X2707492Y9083055D01*
X2716890Y9083055D01*
X2730606Y9078229D01*
X2735178Y9069085D01*
X2835000Y9240027D02*
G01*
X2835000Y9337055D01*
X2835000Y9240027D02*
G01*
X2802742Y9240027D01*
X2788772Y9244599D01*
X2779628Y9253743D01*
X2775056Y9263141D01*
X2770230Y9276857D01*
X2770230Y9299971D01*
X2775056Y9313941D01*
X2779628Y9323085D01*
X2788772Y9332229D01*
X2802742Y9337055D01*
X2835000Y9337055D01*
X2739750Y9258569D02*
G01*
X2730606Y9253743D01*
X2716890Y9240027D01*
X2716890Y9337055D01*
X2658470Y9240027D02*
G01*
X2672440Y9244599D01*
X2681584Y9258569D01*
X2686410Y9281429D01*
X2686410Y9295399D01*
X2681584Y9318513D01*
X2672440Y9332229D01*
X2658470Y9337055D01*
X2649326Y9337055D01*
X2635610Y9332229D01*
X2626212Y9318513D01*
X2621640Y9295399D01*
X2621640Y9281429D01*
X2626212Y9258569D01*
X2635610Y9244599D01*
X2649326Y9240027D01*
X2658470Y9240027D01*
X2835000Y9494027D02*
G01*
X2835000Y9591055D01*
X2835000Y9494027D02*
G01*
X2802742Y9494027D01*
X2788772Y9498599D01*
X2779628Y9507743D01*
X2775056Y9517141D01*
X2770230Y9530857D01*
X2770230Y9553971D01*
X2775056Y9567941D01*
X2779628Y9577085D01*
X2788772Y9586229D01*
X2802742Y9591055D01*
X2835000Y9591055D01*
X2739750Y9512569D02*
G01*
X2730606Y9507743D01*
X2716890Y9494027D01*
X2716890Y9591055D01*
X2686410Y9512569D02*
G01*
X2677012Y9507743D01*
X2663296Y9494027D01*
X2663296Y9591055D01*
X1809856Y9468627D02*
G01*
X1759056Y9468627D01*
X1786742Y9505457D01*
X1772772Y9505457D01*
X1763628Y9510029D01*
X1759056Y9514855D01*
X1754230Y9528571D01*
X1754230Y9537969D01*
X1759056Y9551685D01*
X1768200Y9560829D01*
X1782170Y9565655D01*
X1795886Y9565655D01*
X1809856Y9560829D01*
X1814428Y9556257D01*
X1819000Y9547113D01*
X1723750Y9468627D02*
G01*
X1686920Y9565655D01*
X1650090Y9468627D02*
G01*
X1686920Y9565655D01*
X1610212Y9468627D02*
G01*
X1559412Y9468627D01*
X1587098Y9505457D01*
X1573382Y9505457D01*
X1563984Y9510029D01*
X1559412Y9514855D01*
X1554840Y9528571D01*
X1554840Y9537969D01*
X1559412Y9551685D01*
X1568810Y9560829D01*
X1582526Y9565655D01*
X1596496Y9565655D01*
X1610212Y9560829D01*
X1614784Y9556257D01*
X1619610Y9547113D01*
X1742800Y9246885D02*
G01*
X1742800Y9311655D01*
X1742800Y9274571D02*
G01*
X1738228Y9260855D01*
X1728830Y9251457D01*
X1719686Y9246885D01*
X1705970Y9246885D01*
X1675490Y9274571D02*
G01*
X1619864Y9274571D01*
X1619864Y9265427D01*
X1624690Y9256029D01*
X1629262Y9251457D01*
X1638406Y9246885D01*
X1652376Y9246885D01*
X1661520Y9251457D01*
X1670664Y9260855D01*
X1675490Y9274571D01*
X1675490Y9283969D01*
X1670664Y9297685D01*
X1661520Y9306829D01*
X1652376Y9311655D01*
X1638406Y9311655D01*
X1629262Y9306829D01*
X1619864Y9297685D01*
X1552554Y9214627D02*
G01*
X1561698Y9214627D01*
X1571096Y9219199D01*
X1575668Y9233169D01*
X1575668Y9311655D01*
X1589384Y9246885D02*
G01*
X1557126Y9246885D01*
X1680570Y8960627D02*
G01*
X1717400Y9057655D01*
X1680570Y8960627D02*
G01*
X1643486Y9057655D01*
X1703430Y9025143D02*
G01*
X1657456Y9025143D01*
X1585320Y8960627D02*
G01*
X1599290Y8965199D01*
X1608434Y8979169D01*
X1613006Y9002029D01*
X1613006Y9015999D01*
X1608434Y9039113D01*
X1599290Y9052829D01*
X1585320Y9057655D01*
X1576176Y9057655D01*
X1562206Y9052829D01*
X1553062Y9039113D01*
X1548490Y9015999D01*
X1548490Y9002029D01*
X1553062Y8979169D01*
X1562206Y8965199D01*
X1576176Y8960627D01*
X1585320Y8960627D01*
X1680570Y8706627D02*
G01*
X1717400Y8803655D01*
X1680570Y8706627D02*
G01*
X1643486Y8803655D01*
X1703430Y8771143D02*
G01*
X1657456Y8771143D01*
X1613006Y8725169D02*
G01*
X1603862Y8720343D01*
X1589892Y8706627D01*
X1589892Y8803655D01*
X1680570Y8452627D02*
G01*
X1717400Y8549655D01*
X1680570Y8452627D02*
G01*
X1643486Y8549655D01*
X1703430Y8517143D02*
G01*
X1657456Y8517143D01*
X1608434Y8475741D02*
G01*
X1608434Y8471169D01*
X1603862Y8461771D01*
X1599290Y8457199D01*
X1589892Y8452627D01*
X1571350Y8452627D01*
X1562206Y8457199D01*
X1557634Y8461771D01*
X1553062Y8471169D01*
X1553062Y8480313D01*
X1557634Y8489457D01*
X1566778Y8503427D01*
X1613006Y8549655D01*
X1548490Y8549655D01*
X1680570Y8198627D02*
G01*
X1717400Y8295655D01*
X1680570Y8198627D02*
G01*
X1643486Y8295655D01*
X1703430Y8263143D02*
G01*
X1657456Y8263143D01*
X1603862Y8198627D02*
G01*
X1553062Y8198627D01*
X1580748Y8235457D01*
X1566778Y8235457D01*
X1557634Y8240029D01*
X1553062Y8244855D01*
X1548490Y8258571D01*
X1548490Y8267969D01*
X1553062Y8281685D01*
X1562206Y8290829D01*
X1576176Y8295655D01*
X1589892Y8295655D01*
X1603862Y8290829D01*
X1608434Y8286257D01*
X1613006Y8277113D01*
X1680570Y7944627D02*
G01*
X1717400Y8041655D01*
X1680570Y7944627D02*
G01*
X1643486Y8041655D01*
X1703430Y8009143D02*
G01*
X1657456Y8009143D01*
X1566778Y7944627D02*
G01*
X1613006Y8009143D01*
X1543664Y8009143D01*
X1566778Y7944627D02*
G01*
X1566778Y8041655D01*
X1680570Y7690627D02*
G01*
X1717400Y7787655D01*
X1680570Y7690627D02*
G01*
X1643486Y7787655D01*
X1703430Y7755143D02*
G01*
X1657456Y7755143D01*
X1557634Y7690627D02*
G01*
X1603862Y7690627D01*
X1608434Y7732029D01*
X1603862Y7727457D01*
X1589892Y7722885D01*
X1576176Y7722885D01*
X1562206Y7727457D01*
X1553062Y7736855D01*
X1548490Y7750571D01*
X1548490Y7759969D01*
X1553062Y7773685D01*
X1562206Y7782829D01*
X1576176Y7787655D01*
X1589892Y7787655D01*
X1603862Y7782829D01*
X1608434Y7778257D01*
X1613006Y7769113D01*
X1680570Y7436627D02*
G01*
X1717400Y7533655D01*
X1680570Y7436627D02*
G01*
X1643486Y7533655D01*
X1703430Y7501143D02*
G01*
X1657456Y7501143D01*
X1557634Y7450343D02*
G01*
X1562206Y7441199D01*
X1576176Y7436627D01*
X1585320Y7436627D01*
X1599290Y7441199D01*
X1608434Y7455169D01*
X1613006Y7478029D01*
X1613006Y7501143D01*
X1608434Y7519685D01*
X1599290Y7528829D01*
X1585320Y7533655D01*
X1580748Y7533655D01*
X1566778Y7528829D01*
X1557634Y7519685D01*
X1553062Y7505969D01*
X1553062Y7501143D01*
X1557634Y7487427D01*
X1566778Y7478029D01*
X1580748Y7473457D01*
X1585320Y7473457D01*
X1599290Y7478029D01*
X1608434Y7487427D01*
X1613006Y7501143D01*
X1680570Y7182627D02*
G01*
X1717400Y7279655D01*
X1680570Y7182627D02*
G01*
X1643486Y7279655D01*
X1703430Y7247143D02*
G01*
X1657456Y7247143D01*
X1548490Y7182627D02*
G01*
X1594464Y7279655D01*
X1613006Y7182627D02*
G01*
X1548490Y7182627D01*
X1793600Y6674627D02*
G01*
X1793600Y6771655D01*
X1793600Y6674627D02*
G01*
X1751944Y6674627D01*
X1738228Y6679199D01*
X1733656Y6683771D01*
X1728830Y6693169D01*
X1728830Y6702313D01*
X1733656Y6711457D01*
X1738228Y6716029D01*
X1751944Y6720855D01*
X1793600Y6720855D01*
X1761342Y6720855D02*
G01*
X1728830Y6771655D01*
X1633834Y6688343D02*
G01*
X1642978Y6679199D01*
X1656948Y6674627D01*
X1675490Y6674627D01*
X1689206Y6679199D01*
X1698350Y6688343D01*
X1698350Y6697741D01*
X1693778Y6706885D01*
X1689206Y6711457D01*
X1680062Y6716029D01*
X1652376Y6725427D01*
X1642978Y6729999D01*
X1638406Y6734571D01*
X1633834Y6743969D01*
X1633834Y6757685D01*
X1642978Y6766829D01*
X1656948Y6771655D01*
X1675490Y6771655D01*
X1689206Y6766829D01*
X1698350Y6757685D01*
X1571096Y6674627D02*
G01*
X1571096Y6771655D01*
X1603354Y6674627D02*
G01*
X1538584Y6674627D01*
G36*
X779983Y1869998D02*
G01*
X779983Y1810004D01*
X870000Y1839975D01*
G37*
G36*
X779983Y4269994D02*
G01*
X779983Y4209999D01*
X870000Y4239971D01*
G37*
G36*
X779983Y5469991D02*
G01*
X779983Y5409996D01*
X870000Y5439968D01*
G37*
G36*
X1960016Y369976D02*
G01*
X1929993Y280009D01*
X1990039Y280009D01*
G37*
G36*
X779983Y3144977D02*
G01*
X779983Y3084982D01*
X870000Y3115005D01*
G37*
G36*
X2661005Y1634642D02*
G01*
X2661005Y1565402D01*
X2676245Y1565402D01*
X2676245Y1634642D01*
G37*
G36*
X2661005Y1234643D02*
G01*
X2661005Y1165402D01*
X2676245Y1165402D01*
X2676245Y1234643D01*
G37*
D10*
X1277495Y1462432D02*
G01*
X1277495Y1437553D01*
X1359997Y1148999D02*
G01*
X1359997Y1228994D01*
X1280002Y1228994D01*
X1280002Y1311440D01*
X1113116Y1148999D02*
G01*
X1359997Y1148999D01*
X754999Y1148999D02*
G01*
X836884Y1148999D01*
X752495Y2049990D02*
G01*
X752495Y1150000D01*
X1277495Y1887552D02*
G01*
X1277495Y1979993D01*
X1277495Y1737553D02*
G01*
X1277495Y1762432D01*
X1277495Y1587553D02*
G01*
X1277495Y1612432D01*
X1357495Y2049990D02*
G01*
X1357495Y1979993D01*
X1277495Y1979993D01*
X1110609Y2049990D02*
G01*
X1357495Y2049990D01*
X752495Y2049990D02*
G01*
X834379Y2049990D01*
X1277495Y3862433D02*
G01*
X1277495Y3837553D01*
X1359997Y3548999D02*
G01*
X1359997Y3628994D01*
X1280002Y3628994D01*
X1280002Y3711440D01*
X1113116Y3548999D02*
G01*
X1359997Y3548999D01*
X754999Y3548999D02*
G01*
X836884Y3548999D01*
X752495Y4449991D02*
G01*
X752495Y3550000D01*
X1277495Y4287553D02*
G01*
X1277495Y4379993D01*
X1277495Y4137553D02*
G01*
X1277495Y4162432D01*
X1277495Y3987553D02*
G01*
X1277495Y4012432D01*
X1357495Y4449991D02*
G01*
X1357495Y4379993D01*
X1277495Y4379993D01*
X1110609Y4449991D02*
G01*
X1357495Y4449991D01*
X752495Y4449991D02*
G01*
X834379Y4449991D01*
X1277495Y5062433D02*
G01*
X1277495Y5037554D01*
X1359997Y4748999D02*
G01*
X1359997Y4828994D01*
X1280002Y4828994D01*
X1280002Y4911440D01*
X1113116Y4748999D02*
G01*
X1359997Y4748999D01*
X754999Y4748999D02*
G01*
X836884Y4748999D01*
X752495Y5649991D02*
G01*
X752495Y4750000D01*
X1277495Y5487553D02*
G01*
X1277495Y5579993D01*
X1277495Y5337553D02*
G01*
X1277495Y5362432D01*
X1277495Y5187553D02*
G01*
X1277495Y5212433D01*
X1357495Y5649991D02*
G01*
X1357495Y5579993D01*
X1277495Y5579993D01*
X1110609Y5649991D02*
G01*
X1357495Y5649991D01*
X752495Y5649991D02*
G01*
X834379Y5649991D01*
X2337567Y777494D02*
G01*
X2362446Y777494D01*
X2651000Y859995D02*
G01*
X2571005Y859995D01*
X2571005Y780000D01*
X2488559Y780000D01*
X2651000Y613115D02*
G01*
X2651000Y859995D01*
X2651000Y254998D02*
G01*
X2651000Y336882D01*
X1750009Y252493D02*
G01*
X2649999Y252493D01*
X1912447Y777494D02*
G01*
X1820006Y777494D01*
X2062446Y777494D02*
G01*
X2037567Y777494D01*
X2212446Y777494D02*
G01*
X2187567Y777494D01*
X1750009Y857493D02*
G01*
X1820006Y857493D01*
X1820006Y777494D01*
X1750009Y610608D02*
G01*
X1750009Y857493D01*
X1750009Y252493D02*
G01*
X1750009Y334378D01*
X752495Y3324999D02*
G01*
X752495Y2274999D01*
X1357495Y2274999D02*
G01*
X1357495Y2354996D01*
X1277495Y2354996D01*
X1277495Y2437437D01*
X1110609Y2274999D02*
G01*
X1357495Y2274999D01*
X752495Y2274999D02*
G01*
X834379Y2274999D01*
X1277495Y3162561D02*
G01*
X1277495Y3255002D01*
X1277495Y3012561D02*
G01*
X1277495Y3037441D01*
X1277495Y2862562D02*
G01*
X1277495Y2887441D01*
X1277495Y2712562D02*
G01*
X1277495Y2737441D01*
X1277495Y2562560D02*
G01*
X1277495Y2587442D01*
X1357495Y3324999D02*
G01*
X1357495Y3255002D01*
X1277495Y3255002D01*
X1110609Y3324999D02*
G01*
X1357495Y3324999D01*
X752495Y3324999D02*
G01*
X834379Y3324999D01*
X3127471Y2664172D02*
G01*
X3127471Y2549997D01*
X3005472Y2549997D01*
X3005472Y2501999D01*
X3127471Y2814172D02*
G01*
X3127471Y2785838D01*
X3289355Y3099996D02*
G01*
X3007471Y3099996D01*
X3007471Y3050997D01*
X3127471Y3050997D01*
X3127471Y2935838D01*
X3565583Y2498999D02*
G01*
X3627470Y2498999D01*
X3627470Y3099996D01*
X3565583Y3099996D01*
X3007471Y2498999D02*
G01*
X3289355Y2498999D01*
X3127471Y5064173D02*
G01*
X3127471Y4949997D01*
X3005472Y4949997D01*
X3005472Y4901999D01*
X3127471Y5214172D02*
G01*
X3127471Y5185839D01*
X3289355Y5499996D02*
G01*
X3007471Y5499996D01*
X3007471Y5450997D01*
X3127471Y5450997D01*
X3127471Y5335838D01*
X3565583Y4898999D02*
G01*
X3627470Y4898999D01*
X3627470Y5499996D01*
X3565583Y5499996D01*
X3007471Y4898999D02*
G01*
X3289355Y4898999D01*
X3127471Y4264172D02*
G01*
X3127471Y4149996D01*
X3005472Y4149996D01*
X3005472Y4101998D01*
X3127471Y4414172D02*
G01*
X3127471Y4385838D01*
X3289355Y4699995D02*
G01*
X3007471Y4699995D01*
X3007471Y4650996D01*
X3127471Y4650996D01*
X3127471Y4535838D01*
X3565583Y4098998D02*
G01*
X3627470Y4098998D01*
X3627470Y4699995D01*
X3565583Y4699995D01*
X3007471Y4098998D02*
G01*
X3289355Y4098998D01*
X3127471Y3464173D02*
G01*
X3127471Y3349998D01*
X3005472Y3349998D01*
X3005472Y3302000D01*
X3127471Y3614173D02*
G01*
X3127471Y3585839D01*
X3289355Y3899997D02*
G01*
X3007471Y3899997D01*
X3007471Y3850998D01*
X3127471Y3850998D01*
X3127471Y3735839D01*
X3565583Y3299000D02*
G01*
X3627470Y3299000D01*
X3627470Y3899997D01*
X3565583Y3899997D01*
X3007471Y3299000D02*
G01*
X3289355Y3299000D01*
D23*
X2829618Y1550139D02*
G01*
X2908508Y1550139D01*
X2908508Y1649859D01*
X2829618Y1649859D01*
X2770380Y1550139D02*
G01*
X2706730Y1550139D01*
X2691490Y1565379D01*
X2691490Y1634619D01*
X2706730Y1649859D01*
X2770380Y1649859D01*
X2829618Y1150139D02*
G01*
X2908508Y1150139D01*
X2908508Y1249860D01*
X2829618Y1249860D01*
X2770380Y1150139D02*
G01*
X2706730Y1150139D01*
X2691490Y1165379D01*
X2691490Y1234620D01*
X2706730Y1249860D01*
X2770380Y1249860D01*
X2242621Y4836139D02*
G01*
X2338509Y4836139D01*
X2338509Y4968260D01*
X2242621Y4968260D01*
X2157379Y4836139D02*
G01*
X2061491Y4836139D01*
X2061491Y4968260D01*
X2157379Y4968260D01*
X2242621Y4518639D02*
G01*
X2338509Y4518639D01*
X2338509Y4650760D01*
X2242621Y4650760D01*
X2157379Y4518639D02*
G01*
X2061491Y4518639D01*
X2061491Y4650760D01*
X2157379Y4650760D01*
X2242621Y4074139D02*
G01*
X2338509Y4074139D01*
X2338509Y4206260D01*
X2242621Y4206260D01*
X2157379Y4074139D02*
G01*
X2061491Y4074139D01*
X2061491Y4206260D01*
X2157379Y4206260D01*
X2242621Y3680439D02*
G01*
X2338509Y3680439D01*
X2338509Y3812560D01*
X2242621Y3812560D01*
X2157379Y3680439D02*
G01*
X2061491Y3680439D01*
X2061491Y3812560D01*
X2157379Y3812560D01*
D10*
X3089000Y10158999D02*
G01*
X1311000Y10158999D01*
X1311000Y10158999D02*
G01*
X1311000Y5840999D01*
X1311000Y5840999D02*
G01*
X3089000Y5840999D01*
X3089000Y5840999D02*
G01*
X3089000Y10158999D01*
X2581000Y9777999D02*
G01*
X2581000Y10539999D01*
X1819000Y10539999D01*
X1819000Y9777999D01*
X2581000Y9777999D01*
G75*
G01
X2983636Y2619985D02*
G03X2983636Y2619985I-12700J0D01*
G75*
G01
X2983636Y5019980D02*
G03X2983636Y5019980I-12700J0D01*
G75*
G01
X2983636Y4219981D02*
G03X2983636Y4219981I-12700J0D01*
G75*
G01
X2983636Y3419983D02*
G03X2983636Y3419983I-12700J0D01*
D24*
G75*
G01
X2803804Y1550137D02*
G03X2803804Y1550137I-3810J0D01*
G75*
G01
X2803804Y1649857D02*
G03X2803804Y1649857I-3810J0D01*
G75*
G01
X2803804Y1150137D02*
G03X2803804Y1150137I-3810J0D01*
G75*
G01
X2803804Y1249858D02*
G03X2803804Y1249858I-3810J0D01*
M02*
