G04 Layer: BottomSolderMaskLayer*
G04 EasyEDA v6.4.25, 2021-11-07T18:49:49+08:00*
G04 d23bd0d7be1842068ba5471e3ed9ef93,bf42d0b733a240ea811a95ecb7acc88b,10*
G04 Gerber Generator version 0.2*
G04 Scale: 100 percent, Rotated: No, Reflected: No *
G04 Dimensions in millimeters *
G04 leading zeros omitted , absolute positions ,4 integer and 5 decimal *
%FSLAX45Y45*%
%MOMM*%

%ADD26C,1.9812*%
%ADD27C,1.9032*%

%LPD*%
D26*
X2945894Y6476009D02*
G01*
X2978096Y6476009D01*
X2945894Y6730009D02*
G01*
X2978096Y6730009D01*
X2945894Y6984009D02*
G01*
X2978096Y6984009D01*
X2945894Y7238009D02*
G01*
X2978096Y7238009D01*
X2945894Y7492009D02*
G01*
X2978096Y7492009D01*
X2945894Y7746009D02*
G01*
X2978096Y7746009D01*
X2945894Y8000009D02*
G01*
X2978096Y8000009D01*
X2945894Y8254009D02*
G01*
X2978096Y8254009D01*
X2945894Y8508009D02*
G01*
X2978096Y8508009D01*
X2945894Y8762009D02*
G01*
X2978096Y8762009D01*
X2945894Y9016009D02*
G01*
X2978096Y9016009D01*
X2945894Y9270009D02*
G01*
X2978096Y9270009D01*
X2945894Y9524009D02*
G01*
X2978096Y9524009D01*
X2945894Y9778009D02*
G01*
X2978096Y9778009D01*
D27*
X1417995Y6222009D02*
G01*
X1457995Y6222009D01*
X1417995Y6476009D02*
G01*
X1457995Y6476009D01*
X1417995Y6730009D02*
G01*
X1457995Y6730009D01*
X1417995Y6984009D02*
G01*
X1457995Y6984009D01*
X1417995Y7238009D02*
G01*
X1457995Y7238009D01*
X1417995Y7492009D02*
G01*
X1457995Y7492009D01*
X1417995Y7746009D02*
G01*
X1457995Y7746009D01*
X1417995Y8000009D02*
G01*
X1457995Y8000009D01*
X1417995Y8254009D02*
G01*
X1457995Y8254009D01*
X1417995Y8508009D02*
G01*
X1457995Y8508009D01*
X1417995Y8762009D02*
G01*
X1457995Y8762009D01*
X1417995Y9016009D02*
G01*
X1457995Y9016009D01*
X1417995Y9270009D02*
G01*
X1457995Y9270009D01*
X1417995Y9524009D02*
G01*
X1457995Y9524009D01*
X1417995Y9778009D02*
G01*
X1457995Y9778009D01*
G36*
X2846831Y6106921D02*
G01*
X2846831Y6337045D01*
X3077209Y6337045D01*
X3077209Y6106921D01*
G37*
M02*
