M48
METRIC,LZ,000.000
;FILE_FORMAT=3:3
;TYPE=PLATED
;Layer: Drill PTH
;EasyEDA v6.4.25, 2021-11-07T18:49:49+08:00
;d23bd0d7be1842068ba5471e3ed9ef93,bf42d0b733a240ea811a95ecb7acc88b,10
;Gerber Generator version 0.2
;Holesize 1 = 0.306 mm
T01C0.306
;Holesize 2 = 0.751 mm
T02C0.751
;Holesize 3 = 0.915 mm
T03C0.915
%
G05
G90
T01
X016006Y012939
X016987Y015215
X016469Y086951
X010488Y073320
X012386Y028621
X011356Y036151
X014640Y024125
X022069Y035249
X031456Y026389
X029725Y042371
X022814Y078152
T02
X021247Y064760
X027218Y027231
X019771Y039138
X029725Y054160
T03
X029620Y062220
X029620Y064760
X029620Y067300
X029620Y069840
X029620Y072380
X029620Y074920
X029620Y077460
X029620Y080000
X029620Y082540
X029620Y085080
X029620Y087620
X029620Y090160
X029620Y092700
X029620Y095240
X029620Y097780
X014380Y062220
X014380Y064760
X014380Y067300
X014380Y069840
X014380Y072380
X014380Y074920
X014380Y077460
X014380Y080000
X014380Y082540
X014380Y085080
X014380Y087620
X014380Y090160
X014380Y092700
X014380Y095240
X014380Y097780
M30
