G04 Layer: BottomLayer*
G04 EasyEDA v6.4.25, 2021-11-07T18:49:49+08:00*
G04 d23bd0d7be1842068ba5471e3ed9ef93,bf42d0b733a240ea811a95ecb7acc88b,10*
G04 Gerber Generator version 0.2*
G04 Scale: 100 percent, Rotated: No, Reflected: No *
G04 Dimensions in millimeters *
G04 leading zeros omitted , absolute positions ,4 integer and 5 decimal *
%FSLAX45Y45*%
%MOMM*%

%ADD10C,0.2540*%
%ADD11C,0.5000*%
%ADD12C,1.5000*%
%ADD13C,0.6100*%
%ADD20R,2.1000X2.1000*%
%ADD21C,1.7780*%
%ADD22C,1.7000*%

%LPD*%
D11*
X2124661Y6476001D02*
G01*
X2632661Y6984001D01*
X2961998Y6984001D01*
X1437998Y6476001D02*
G01*
X2124661Y6476001D01*
X1437998Y6984001D02*
G01*
X1043739Y6589742D01*
X1043739Y3584745D01*
X1095225Y3533259D01*
X1188392Y3533259D01*
X2972513Y5317380D01*
X2972513Y5416008D01*
X1977138Y3913751D02*
G01*
X1156769Y3093382D01*
X1156769Y2820713D01*
X1254406Y2723075D01*
X2721841Y2723075D01*
D10*
X2961998Y7492001D02*
G01*
X2825041Y7355044D01*
X1355244Y7355044D01*
X937922Y6937722D01*
X937922Y1956554D01*
X1600634Y1293842D01*
X2961998Y7238001D02*
G01*
X2841830Y7117834D01*
X1369900Y7117834D01*
X978791Y6726725D01*
X978791Y2241389D01*
X1698729Y1521452D01*
X1646913Y8695047D02*
G01*
X2729867Y9778001D01*
X2961998Y9778001D01*
X2961998Y9524001D02*
G01*
X1688848Y8250852D01*
X1688848Y7806910D01*
X1500939Y7619001D01*
X1335813Y7619001D01*
X1048844Y7332032D01*
X1238557Y2862064D02*
G01*
X3194992Y4818499D01*
X3194992Y8021007D01*
X2961998Y8254001D01*
X1135611Y3615072D02*
G01*
X1135611Y4651265D01*
X2839493Y6355148D01*
X3040611Y6355148D01*
X3112340Y6426878D01*
X3112340Y7537823D01*
X3031162Y7619001D01*
X2901317Y7619001D01*
X2825041Y7695277D01*
X2825041Y7863044D01*
X2961998Y8000001D01*
X2961998Y7746001D02*
G01*
X3154123Y7553876D01*
X3154123Y5361068D01*
X1093116Y3300061D01*
X1093116Y2783400D01*
X1464033Y2412484D01*
X3145640Y2638849D02*
G01*
X3092960Y2638849D01*
X2206881Y3524928D01*
X2972513Y4237042D02*
G01*
X3235860Y4500389D01*
X3235860Y8163018D01*
X2932534Y8466345D01*
X2961998Y8508001D02*
G01*
X2932534Y8478537D01*
X2932534Y8466345D01*
X2932534Y8466345D02*
G01*
X2281430Y7815242D01*
D20*
G01*
X2961995Y6222009D03*
D12*
G01*
X2124659Y6476009D03*
G01*
X2721838Y2723083D03*
G01*
X1977136Y3913759D03*
G01*
X2972511Y5416016D03*
D13*
G01*
X1600631Y1293850D03*
G01*
X1698726Y1521460D03*
G01*
X1646910Y8695054D03*
G01*
X1048842Y7332040D03*
G01*
X1238554Y2862071D03*
G01*
X1135608Y3615080D03*
G01*
X1464030Y2412492D03*
G01*
X2206879Y3524935D03*
G01*
X3145637Y2638856D03*
G01*
X2972511Y4237050D03*
G01*
X2281427Y7815249D03*
D21*
X2945894Y6476009D02*
G01*
X2978096Y6476009D01*
X2945894Y6730009D02*
G01*
X2978096Y6730009D01*
X2945894Y6984009D02*
G01*
X2978096Y6984009D01*
X2945894Y7238009D02*
G01*
X2978096Y7238009D01*
X2945894Y7492009D02*
G01*
X2978096Y7492009D01*
X2945894Y7746009D02*
G01*
X2978096Y7746009D01*
X2945894Y8000009D02*
G01*
X2978096Y8000009D01*
X2945894Y8254009D02*
G01*
X2978096Y8254009D01*
X2945894Y8508009D02*
G01*
X2978096Y8508009D01*
X2945894Y8762009D02*
G01*
X2978096Y8762009D01*
X2945894Y9016009D02*
G01*
X2978096Y9016009D01*
X2945894Y9270009D02*
G01*
X2978096Y9270009D01*
X2945894Y9524009D02*
G01*
X2978096Y9524009D01*
X2945894Y9778009D02*
G01*
X2978096Y9778009D01*
D22*
X1417995Y6222009D02*
G01*
X1457995Y6222009D01*
X1417995Y6476009D02*
G01*
X1457995Y6476009D01*
X1417995Y6730009D02*
G01*
X1457995Y6730009D01*
X1417995Y6984009D02*
G01*
X1457995Y6984009D01*
X1417995Y7238009D02*
G01*
X1457995Y7238009D01*
X1417995Y7492009D02*
G01*
X1457995Y7492009D01*
X1417995Y7746009D02*
G01*
X1457995Y7746009D01*
X1417995Y8000009D02*
G01*
X1457995Y8000009D01*
X1417995Y8254009D02*
G01*
X1457995Y8254009D01*
X1417995Y8508009D02*
G01*
X1457995Y8508009D01*
X1417995Y8762009D02*
G01*
X1457995Y8762009D01*
X1417995Y9016009D02*
G01*
X1457995Y9016009D01*
X1417995Y9270009D02*
G01*
X1457995Y9270009D01*
X1417995Y9524009D02*
G01*
X1457995Y9524009D01*
X1417995Y9778009D02*
G01*
X1457995Y9778009D01*
M02*
